<svg xmlns="http://www.w3.org/2000/svg" width="1000" height="440" viewBox="0 0 1000 440" font-family="Arial, Liberation Sans, sans-serif"><defs><clipPath id="clip-main"><rect x="43" y="53" width="951" height="348"></rect></clipPath></defs><rect width="100%" height="100%" fill="#fcfcfb"></rect><line x1="43.5" y1="401.5" x2="994.5" y2="401.5" stroke="#e1e0d9" stroke-width="1"></line><line x1="43.5" y1="358" x2="994.5" y2="358" stroke="#e1e0d9" stroke-width="1"></line><line x1="43.5" y1="314.5" x2="994.5" y2="314.5" stroke="#e1e0d9" stroke-width="1"></line><line x1="43.5" y1="271" x2="994.5" y2="271" stroke="#e1e0d9" stroke-width="1"></line><line x1="43.5" y1="227.5" x2="994.5" y2="227.5" stroke="#e1e0d9" stroke-width="1"></line><line x1="43.5" y1="184" x2="994.5" y2="184" stroke="#e1e0d9" stroke-width="1"></line><line x1="43.5" y1="140.5" x2="994.5" y2="140.5" stroke="#e1e0d9" stroke-width="1"></line><line x1="43.5" y1="97" x2="994.5" y2="97" stroke="#e1e0d9" stroke-width="1"></line><line x1="43.5" y1="53.5" x2="994.5" y2="53.5" stroke="#e1e0d9" stroke-width="1"></line><line x1="43.5" y1="401.5" x2="994.5" y2="401.5" stroke="#c3c2b7" stroke-width="1"></line><line x1="43.5" y1="401.5" x2="43.5" y2="405.5" stroke="#c3c2b7" stroke-width="1"></line><text x="43.5" y="418.5" font-size="11" fill="#52514e" text-anchor="start">0</text><line x1="96.33" y1="401.5" x2="96.33" y2="405.5" stroke="#c3c2b7" stroke-width="1"></line><text x="96.33" y="418.5" font-size="11" fill="#52514e" text-anchor="middle">2</text><line x1="149.17" y1="401.5" x2="149.17" y2="405.5" stroke="#c3c2b7" stroke-width="1"></line><text x="149.17" y="418.5" font-size="11" fill="#52514e" text-anchor="middle">4</text><line x1="202" y1="401.5" x2="202" y2="405.5" stroke="#c3c2b7" stroke-width="1"></line><text x="202" y="418.5" font-size="11" fill="#52514e" text-anchor="middle">6</text><line x1="254.83" y1="401.5" x2="254.83" y2="405.5" stroke="#c3c2b7" stroke-width="1"></line><text x="254.83" y="418.5" font-size="11" fill="#52514e" text-anchor="middle">8</text><line x1="307.67" y1="401.5" x2="307.67" y2="405.5" stroke="#c3c2b7" stroke-width="1"></line><text x="307.67" y="418.5" font-size="11" fill="#52514e" text-anchor="middle">10</text><line x1="360.5" y1="401.5" x2="360.5" y2="405.5" stroke="#c3c2b7" stroke-width="1"></line><text x="360.5" y="418.5" font-size="11" fill="#52514e" text-anchor="middle">12</text><line x1="413.33" y1="401.5" x2="413.33" y2="405.5" stroke="#c3c2b7" stroke-width="1"></line><text x="413.33" y="418.5" font-size="11" fill="#52514e" text-anchor="middle">14</text><line x1="466.17" y1="401.5" x2="466.17" y2="405.5" stroke="#c3c2b7" stroke-width="1"></line><text x="466.17" y="418.5" font-size="11" fill="#52514e" text-anchor="middle">16</text><line x1="519" y1="401.5" x2="519" y2="405.5" stroke="#c3c2b7" stroke-width="1"></line><text x="519" y="418.5" font-size="11" fill="#52514e" text-anchor="middle">18</text><line x1="571.83" y1="401.5" x2="571.83" y2="405.5" stroke="#c3c2b7" stroke-width="1"></line><text x="571.83" y="418.5" font-size="11" fill="#52514e" text-anchor="middle">20</text><line x1="624.67" y1="401.5" x2="624.67" y2="405.5" stroke="#c3c2b7" stroke-width="1"></line><text x="624.67" y="418.5" font-size="11" fill="#52514e" text-anchor="middle">22</text><line x1="677.5" y1="401.5" x2="677.5" y2="405.5" stroke="#c3c2b7" stroke-width="1"></line><text x="677.5" y="418.5" font-size="11" fill="#52514e" text-anchor="middle">24</text><line x1="730.33" y1="401.5" x2="730.33" y2="405.5" stroke="#c3c2b7" stroke-width="1"></line><text x="730.33" y="418.5" font-size="11" fill="#52514e" text-anchor="middle">26</text><line x1="783.17" y1="401.5" x2="783.17" y2="405.5" stroke="#c3c2b7" stroke-width="1"></line><text x="783.17" y="418.5" font-size="11" fill="#52514e" text-anchor="middle">28</text><line x1="836" y1="401.5" x2="836" y2="405.5" stroke="#c3c2b7" stroke-width="1"></line><text x="836" y="418.5" font-size="11" fill="#52514e" text-anchor="middle">30</text><line x1="888.83" y1="401.5" x2="888.83" y2="405.5" stroke="#c3c2b7" stroke-width="1"></line><text x="888.83" y="418.5" font-size="11" fill="#52514e" text-anchor="middle">32</text><line x1="941.67" y1="401.5" x2="941.67" y2="405.5" stroke="#c3c2b7" stroke-width="1"></line><text x="941.67" y="418.5" font-size="11" fill="#52514e" text-anchor="middle">34</text><line x1="994.5" y1="401.5" x2="994.5" y2="405.5" stroke="#c3c2b7" stroke-width="1"></line><text x="994.5" y="418.5" font-size="11" fill="#52514e" text-anchor="end">36</text><text x="519" y="433.5" font-size="12" fill="#52514e" font-weight="normal" text-anchor="middle">age (months)</text><line x1="43.5" y1="53.5" x2="43.5" y2="401.5" stroke="#c3c2b7" stroke-width="1"></line><line x1="39.5" y1="401.5" x2="43.5" y2="401.5" stroke="#c3c2b7" stroke-width="1"></line><text x="35.5" y="404.5" font-size="11" fill="#52514e" text-anchor="end">2</text><line x1="39.5" y1="358" x2="43.5" y2="358" stroke="#c3c2b7" stroke-width="1"></line><text x="35.5" y="361" font-size="11" fill="#52514e" text-anchor="end">4</text><line x1="39.5" y1="314.5" x2="43.5" y2="314.5" stroke="#c3c2b7" stroke-width="1"></line><text x="35.5" y="317.5" font-size="11" fill="#52514e" text-anchor="end">6</text><line x1="39.5" y1="271" x2="43.5" y2="271" stroke="#c3c2b7" stroke-width="1"></line><text x="35.5" y="274" font-size="11" fill="#52514e" text-anchor="end">8</text><line x1="39.5" y1="227.5" x2="43.5" y2="227.5" stroke="#c3c2b7" stroke-width="1"></line><text x="35.5" y="230.5" font-size="11" fill="#52514e" text-anchor="end">10</text><line x1="39.5" y1="184" x2="43.5" y2="184" stroke="#c3c2b7" stroke-width="1"></line><text x="35.5" y="187" font-size="11" fill="#52514e" text-anchor="end">12</text><line x1="39.5" y1="140.5" x2="43.5" y2="140.5" stroke="#c3c2b7" stroke-width="1"></line><text x="35.5" y="143.5" font-size="11" fill="#52514e" text-anchor="end">14</text><line x1="39.5" y1="97" x2="43.5" y2="97" stroke="#c3c2b7" stroke-width="1"></line><text x="35.5" y="100" font-size="11" fill="#52514e" text-anchor="end">16</text><line x1="39.5" y1="53.5" x2="43.5" y2="53.5" stroke="#c3c2b7" stroke-width="1"></line><text x="35.5" y="56.5" font-size="11" fill="#52514e" text-anchor="end">18</text><text x="19.26" y="227.5" dy="-3" font-size="12" fill="#52514e" font-weight="normal" text-anchor="middle" transform="rotate(-90 19.26 227.5)">weight (kg)</text><g><path d="M43,385.34L122.25,346.41L201.5,316.18L280.75,292.25L360,273.54L439.25,258.32L518.5,246.14L597.75,235.92L677,227.44L756.25,220.47L835.5,214.17L914.75,208.73L994,203.73" fill="none" stroke="#9a988f" stroke-width="1.4" stroke-linecap="round" stroke-linejoin="round"></path><path d="M43,377.94L122.25,334.23L201.5,300.08L280.75,273.33L360,252.01L439.25,235.05L518.5,221.13L597.75,209.82L677,200.46L756.25,192.42L835.5,185.46L914.75,179.15L994,173.71" fill="none" stroke="#b3b1a6" stroke-width="1.4" stroke-linecap="round" stroke-linejoin="round"></path><path d="M43,370.55L122.25,322.05L201.5,283.99L280.75,254.19L360,230.7L439.25,211.78L518.5,196.33L597.75,183.72L677,173.28L756.25,164.36L835.5,156.53L914.75,149.79L994,143.7" fill="none" stroke="#52514e" stroke-width="1.4" stroke-linecap="round" stroke-linejoin="round"></path><path d="M43,361.63L122.25,307.26L201.5,264.85L280.75,231.57L360,205.03L439.25,183.94L518.5,166.75L597.75,152.62L677,140.65L756.25,130.65L835.5,121.95L914.75,114.33L994,107.59" fill="none" stroke="#9a988f" stroke-width="1.4" stroke-linecap="round" stroke-linejoin="round"></path><path d="M43,352.72L122.25,292.69L201.5,245.49L280.75,208.73L360,179.37L439.25,155.88L518.5,136.95L597.75,121.3L677,108.25L756.25,97.15L835.5,87.58L914.75,79.1L994,71.49" fill="none" stroke="#b3b1a6" stroke-width="1.4" stroke-linecap="round" stroke-linejoin="round"></path><text x="992" y="199.73" font-size="11" fill="#52514e" text-anchor="end">P3</text><text x="992" y="169.71" font-size="11" fill="#52514e" text-anchor="end">P15</text><text x="992" y="139.7" font-size="11" fill="#52514e" text-anchor="end">P50</text><text x="992" y="103.59" font-size="11" fill="#52514e" text-anchor="end">P85</text><text x="992" y="67.49" font-size="11" fill="#52514e" text-anchor="end">P97</text><path d="M43,368.38L122.25,311.82L201.5,272.67L280.75,240.05L360,220.47L518.5,192.2L677,157.4" fill="none" stroke="#2a78d6" stroke-width="2.5" stroke-linecap="round" stroke-linejoin="round"></path><circle cx="43" cy="368.38" r="4.74" fill="#2a78d6" stroke="#fcfcfb" stroke-width="1.5"></circle><circle cx="122.25" cy="311.82" r="4.74" fill="#2a78d6" stroke="#fcfcfb" stroke-width="1.5"></circle><circle cx="201.5" cy="272.67" r="4.74" fill="#2a78d6" stroke="#fcfcfb" stroke-width="1.5"></circle><circle cx="280.75" cy="240.05" r="4.74" fill="#2a78d6" stroke="#fcfcfb" stroke-width="1.5"></circle><circle cx="360" cy="220.47" r="4.74" fill="#2a78d6" stroke="#fcfcfb" stroke-width="1.5"></circle><circle cx="518.5" cy="192.2" r="4.74" fill="#2a78d6" stroke="#fcfcfb" stroke-width="1.5"></circle><circle cx="677" cy="157.4" r="4.74" fill="#2a78d6" stroke="#fcfcfb" stroke-width="1.5"></circle></g><text x="5" y="18" font-size="16" fill="#0b0b0b" font-weight="600" text-anchor="start">Weight for age (synthetic)</text><text x="5" y="33" font-size="12" fill="#52514e" font-weight="normal" text-anchor="start">synthetic percentile curves, not CDC or WHO data</text></svg>