<svg xmlns="http://www.w3.org/2000/svg" width="900" height="560" viewBox="0 0 900 560" font-family="Arial, Liberation Sans, sans-serif"><defs><clipPath id="clip-vconcat_0_hconcat_0"><rect x="29" y="70" width="372" height="198.25"></rect></clipPath><clipPath id="clip-vconcat_0_hconcat_1"><rect x="445" y="70" width="372" height="198.25"></rect></clipPath><clipPath id="clip-vconcat_1_hconcat_0"><rect x="29" y="335.25" width="375.58" height="201.75"></rect></clipPath><clipPath id="clip-vconcat_1_hconcat_1"><rect x="448.58" y="335.25" width="368.42" height="201.75"></rect></clipPath></defs><rect width="100%" height="100%" fill="#fcfcfb"></rect><line x1="29.5" y1="239.01" x2="401.5" y2="239.01" stroke="#e1e0d9" stroke-width="1"></line><line x1="29.5" y1="189.45" x2="401.5" y2="189.45" stroke="#e1e0d9" stroke-width="1"></line><line x1="29.5" y1="139.89" x2="401.5" y2="139.89" stroke="#e1e0d9" stroke-width="1"></line><line x1="29.5" y1="90.32" x2="401.5" y2="90.32" stroke="#e1e0d9" stroke-width="1"></line><line x1="29.5" y1="268.75" x2="401.5" y2="268.75" stroke="#c3c2b7" stroke-width="1"></line><line x1="125.16" y1="268.75" x2="125.16" y2="272.75" stroke="#c3c2b7" stroke-width="1"></line><text x="125.16" y="284.75" font-size="10" fill="#52514e" text-anchor="middle">Apr</text><line x1="232.62" y1="268.75" x2="232.62" y2="272.75" stroke="#c3c2b7" stroke-width="1"></line><text x="232.62" y="284.75" font-size="10" fill="#52514e" text-anchor="middle">Jul</text><line x1="341.27" y1="268.75" x2="341.27" y2="272.75" stroke="#c3c2b7" stroke-width="1"></line><text x="341.27" y="284.75" font-size="10" fill="#52514e" text-anchor="middle">Oct</text><line x1="29.5" y1="70.5" x2="29.5" y2="268.75" stroke="#c3c2b7" stroke-width="1"></line><line x1="25.5" y1="239.01" x2="29.5" y2="239.01" stroke="#c3c2b7" stroke-width="1"></line><text x="21.5" y="242.01" font-size="11" fill="#52514e" text-anchor="end">4.5</text><line x1="25.5" y1="189.45" x2="29.5" y2="189.45" stroke="#c3c2b7" stroke-width="1"></line><text x="21.5" y="192.45" font-size="11" fill="#52514e" text-anchor="end">5.0</text><line x1="25.5" y1="139.89" x2="29.5" y2="139.89" stroke="#c3c2b7" stroke-width="1"></line><text x="21.5" y="142.89" font-size="11" fill="#52514e" text-anchor="end">5.5</text><line x1="25.5" y1="90.32" x2="29.5" y2="90.32" stroke="#c3c2b7" stroke-width="1"></line><text x="21.5" y="93.32" font-size="11" fill="#52514e" text-anchor="end">6.0</text><g><rect x="29" y="240.49" width="372" height="10.41" fill="#2b9348" stroke="#fcfcfb" opacity="0.22" stroke-width="1"></rect><rect x="29" y="129.47" width="372" height="111.02" fill="#e09a00" stroke="#fcfcfb" opacity="0.35" stroke-width="1"></rect><path d="M29,188.95L82.14,171.11L135.29,149.3L188.43,117.58L241.57,94.78L294.71,84.87L347.86,104.69L401,127.49" fill="none" stroke="#898781" stroke-width="1.6" stroke-linecap="round" stroke-linejoin="round"></path><path d="M25.46,188.95L29,185.41L32.54,188.95L29,192.48Z" fill="#e09a00" stroke="#fcfcfb" stroke-width="1.2"></path><path d="M78.61,171.11L82.14,167.57L85.68,171.11L82.14,174.64Z" fill="#e09a00" stroke="#fcfcfb" stroke-width="1.2"></path><path d="M131.75,149.3L135.29,145.76L138.82,149.3L135.29,152.83Z" fill="#e09a00" stroke="#fcfcfb" stroke-width="1.2"></path><path d="M188.43,114.52L184.89,120.64L191.96,120.64Z" fill="#d03b3b" stroke="#fcfcfb" stroke-width="1.2"></path><path d="M241.57,91.72L238.04,97.84L245.11,97.84Z" fill="#d03b3b" stroke="#fcfcfb" stroke-width="1.2"></path><path d="M294.71,81.81L291.18,87.93L298.25,87.93Z" fill="#d03b3b" stroke="#fcfcfb" stroke-width="1.2"></path><path d="M347.86,101.63L344.32,107.76L351.39,107.76Z" fill="#d03b3b" stroke="#fcfcfb" stroke-width="1.2"></path><path d="M401,124.43L397.46,130.55L404.54,130.55Z" fill="#d03b3b" stroke="#fcfcfb" stroke-width="1.2"></path><text x="188.43" y="108.58" font-size="10" fill="#d03b3b" font-weight="bold" text-anchor="middle">H</text><text x="241.57" y="85.78" font-size="10" fill="#d03b3b" font-weight="bold" text-anchor="middle">H</text><text x="294.71" y="75.87" font-size="10" fill="#d03b3b" font-weight="bold" text-anchor="middle">H</text><text x="347.86" y="95.69" font-size="10" fill="#d03b3b" font-weight="bold" text-anchor="middle">H</text><text x="401" y="118.49" font-size="10" fill="#d03b3b" font-weight="bold" text-anchor="middle">H</text><text x="5.71" y="56" font-size="11" fill="#0b0b0b" font-weight="600" text-anchor="start">HbA1c (%)</text></g><path d="M840.5,79.37L836.03,71.63L844.97,71.63Z" fill="#d03b3b" stroke="#fcfcfb" stroke-width="1.5"></path><text x="850" y="78.5" font-size="11" fill="#52514e" text-anchor="start">low</text><path d="M836.03,90.5L840.5,86.03L844.97,90.5L840.5,94.97Z" fill="#e09a00" stroke="#fcfcfb" stroke-width="1.5"></path><text x="850" y="93.5" font-size="11" fill="#52514e" text-anchor="start">near limit</text><circle cx="840.5" cy="105.5" r="4.47" fill="#2b9348" stroke="#fcfcfb" stroke-width="1.5"></circle><text x="850" y="108.5" font-size="11" fill="#52514e" text-anchor="start">in range</text><path d="M840.5,116.63L836.03,124.37L844.97,124.37Z" fill="#d03b3b" stroke="#fcfcfb" stroke-width="1.5"></path><text x="850" y="123.5" font-size="11" fill="#52514e" text-anchor="start">high</text><rect x="836.03" y="131.03" width="8.94" height="8.94" fill="#898781" stroke="#fcfcfb" stroke-width="1.5"></rect><text x="850" y="138.5" font-size="11" fill="#52514e" text-anchor="start">no range</text><line x1="445.5" y1="248.92" x2="817.5" y2="248.92" stroke="#e1e0d9" stroke-width="1"></line><line x1="445.5" y1="199.36" x2="817.5" y2="199.36" stroke="#e1e0d9" stroke-width="1"></line><line x1="445.5" y1="149.8" x2="817.5" y2="149.8" stroke="#e1e0d9" stroke-width="1"></line><line x1="445.5" y1="100.24" x2="817.5" y2="100.24" stroke="#e1e0d9" stroke-width="1"></line><line x1="445.5" y1="268.75" x2="817.5" y2="268.75" stroke="#c3c2b7" stroke-width="1"></line><line x1="541.16" y1="268.75" x2="541.16" y2="272.75" stroke="#c3c2b7" stroke-width="1"></line><text x="541.16" y="284.75" font-size="10" fill="#52514e" text-anchor="middle">Apr</text><line x1="648.62" y1="268.75" x2="648.62" y2="272.75" stroke="#c3c2b7" stroke-width="1"></line><text x="648.62" y="284.75" font-size="10" fill="#52514e" text-anchor="middle">Jul</text><line x1="757.27" y1="268.75" x2="757.27" y2="272.75" stroke="#c3c2b7" stroke-width="1"></line><text x="757.27" y="284.75" font-size="10" fill="#52514e" text-anchor="middle">Oct</text><line x1="445.5" y1="70.5" x2="445.5" y2="268.75" stroke="#c3c2b7" stroke-width="1"></line><line x1="441.5" y1="248.92" x2="445.5" y2="248.92" stroke="#c3c2b7" stroke-width="1"></line><text x="437.5" y="251.92" font-size="11" fill="#52514e" text-anchor="end">4.0</text><line x1="441.5" y1="199.36" x2="445.5" y2="199.36" stroke="#c3c2b7" stroke-width="1"></line><text x="437.5" y="202.36" font-size="11" fill="#52514e" text-anchor="end">4.5</text><line x1="441.5" y1="149.8" x2="445.5" y2="149.8" stroke="#c3c2b7" stroke-width="1"></line><text x="437.5" y="152.8" font-size="11" fill="#52514e" text-anchor="end">5.0</text><line x1="441.5" y1="100.24" x2="445.5" y2="100.24" stroke="#c3c2b7" stroke-width="1"></line><text x="437.5" y="103.24" font-size="11" fill="#52514e" text-anchor="end">5.5</text><g><rect x="445" y="123.53" width="372" height="101.11" fill="#2b9348" stroke="#fcfcfb" opacity="0.22" stroke-width="1"></rect><rect x="445" y="224.63" width="372" height="33.7" fill="#e09a00" stroke="#fcfcfb" opacity="0.35" stroke-width="1"></rect><rect x="445" y="89.82" width="372" height="33.7" fill="#e09a00" stroke="#fcfcfb" opacity="0.35" stroke-width="1"></rect><path d="M445,94.78L498.14,73.96L551.29,73.96L604.43,88.83L657.57,119.56L710.71,164.17L763.86,186.97L817,187.96" fill="none" stroke="#898781" stroke-width="1.6" stroke-linecap="round" stroke-linejoin="round"></path><path d="M441.46,94.78L445,91.25L448.54,94.78L445,98.32Z" fill="#e09a00" stroke="#fcfcfb" stroke-width="1.2"></path><path d="M498.14,70.9L494.61,77.03L501.68,77.03Z" fill="#d03b3b" stroke="#fcfcfb" stroke-width="1.2"></path><path d="M551.29,70.9L547.75,77.03L554.82,77.03Z" fill="#d03b3b" stroke="#fcfcfb" stroke-width="1.2"></path><path d="M604.43,85.77L600.89,91.9L607.96,91.9Z" fill="#d03b3b" stroke="#fcfcfb" stroke-width="1.2"></path><path d="M654.04,119.56L657.57,116.03L661.11,119.56L657.57,123.1Z" fill="#e09a00" stroke="#fcfcfb" stroke-width="1.2"></path><circle cx="710.71" cy="164.17" r="3.54" fill="#2b9348" stroke="#fcfcfb" stroke-width="1.2"></circle><circle cx="763.86" cy="186.97" r="3.54" fill="#2b9348" stroke="#fcfcfb" stroke-width="1.2"></circle><circle cx="817" cy="187.96" r="3.54" fill="#2b9348" stroke="#fcfcfb" stroke-width="1.2"></circle><text x="498.14" y="64.96" font-size="10" fill="#d03b3b" font-weight="bold" text-anchor="middle">H</text><text x="551.29" y="64.96" font-size="10" fill="#d03b3b" font-weight="bold" text-anchor="middle">H</text><text x="604.43" y="79.83" font-size="10" fill="#d03b3b" font-weight="bold" text-anchor="middle">H</text><text x="421.71" y="56" font-size="11" fill="#0b0b0b" font-weight="600" text-anchor="start">Fasting glucose (mmol/L)</text></g><line x1="29.5" y1="537.5" x2="405.08" y2="537.5" stroke="#e1e0d9" stroke-width="1"></line><line x1="29.5" y1="515.08" x2="405.08" y2="515.08" stroke="#e1e0d9" stroke-width="1"></line><line x1="29.5" y1="492.67" x2="405.08" y2="492.67" stroke="#e1e0d9" stroke-width="1"></line><line x1="29.5" y1="470.25" x2="405.08" y2="470.25" stroke="#e1e0d9" stroke-width="1"></line><line x1="29.5" y1="447.83" x2="405.08" y2="447.83" stroke="#e1e0d9" stroke-width="1"></line><line x1="29.5" y1="425.41" x2="405.08" y2="425.41" stroke="#e1e0d9" stroke-width="1"></line><line x1="29.5" y1="403" x2="405.08" y2="403" stroke="#e1e0d9" stroke-width="1"></line><line x1="29.5" y1="380.58" x2="405.08" y2="380.58" stroke="#e1e0d9" stroke-width="1"></line><line x1="29.5" y1="358.16" x2="405.08" y2="358.16" stroke="#e1e0d9" stroke-width="1"></line><line x1="29.5" y1="335.75" x2="405.08" y2="335.75" stroke="#e1e0d9" stroke-width="1"></line><line x1="29.5" y1="537.5" x2="405.08" y2="537.5" stroke="#c3c2b7" stroke-width="1"></line><line x1="126.08" y1="537.5" x2="126.08" y2="541.5" stroke="#c3c2b7" stroke-width="1"></line><text x="126.08" y="553.5" font-size="10" fill="#52514e" text-anchor="middle">Apr</text><line x1="234.58" y1="537.5" x2="234.58" y2="541.5" stroke="#c3c2b7" stroke-width="1"></line><text x="234.58" y="553.5" font-size="10" fill="#52514e" text-anchor="middle">Jul</text><line x1="344.27" y1="537.5" x2="344.27" y2="541.5" stroke="#c3c2b7" stroke-width="1"></line><text x="344.27" y="553.5" font-size="10" fill="#52514e" text-anchor="middle">Oct</text><line x1="29.5" y1="335.75" x2="29.5" y2="537.5" stroke="#c3c2b7" stroke-width="1"></line><line x1="25.5" y1="537.5" x2="29.5" y2="537.5" stroke="#c3c2b7" stroke-width="1"></line><text x="21.5" y="540.5" font-size="11" fill="#52514e" text-anchor="end">3.2</text><line x1="25.5" y1="515.08" x2="29.5" y2="515.08" stroke="#c3c2b7" stroke-width="1"></line><text x="21.5" y="518.08" font-size="11" fill="#52514e" text-anchor="end">3.4</text><line x1="25.5" y1="492.67" x2="29.5" y2="492.67" stroke="#c3c2b7" stroke-width="1"></line><text x="21.5" y="495.67" font-size="11" fill="#52514e" text-anchor="end">3.6</text><line x1="25.5" y1="470.25" x2="29.5" y2="470.25" stroke="#c3c2b7" stroke-width="1"></line><text x="21.5" y="473.25" font-size="11" fill="#52514e" text-anchor="end">3.8</text><line x1="25.5" y1="447.83" x2="29.5" y2="447.83" stroke="#c3c2b7" stroke-width="1"></line><text x="21.5" y="450.83" font-size="11" fill="#52514e" text-anchor="end">4.0</text><line x1="25.5" y1="425.41" x2="29.5" y2="425.41" stroke="#c3c2b7" stroke-width="1"></line><text x="21.5" y="428.41" font-size="11" fill="#52514e" text-anchor="end">4.2</text><line x1="25.5" y1="403" x2="29.5" y2="403" stroke="#c3c2b7" stroke-width="1"></line><text x="21.5" y="406" font-size="11" fill="#52514e" text-anchor="end">4.4</text><line x1="25.5" y1="380.58" x2="29.5" y2="380.58" stroke="#c3c2b7" stroke-width="1"></line><text x="21.5" y="383.58" font-size="11" fill="#52514e" text-anchor="end">4.6</text><line x1="25.5" y1="358.16" x2="29.5" y2="358.16" stroke="#c3c2b7" stroke-width="1"></line><text x="21.5" y="361.16" font-size="11" fill="#52514e" text-anchor="end">4.8</text><line x1="25.5" y1="335.75" x2="29.5" y2="335.75" stroke="#c3c2b7" stroke-width="1"></line><text x="21.5" y="338.75" font-size="11" fill="#52514e" text-anchor="end">5.0</text><g><path d="M29,396.89L82.65,466.39L136.31,508.98L189.96,522.43L243.62,493.29L297.27,440.61L350.92,393.53L404.58,336.37" fill="none" stroke="#898781" stroke-width="1.6" stroke-linecap="round" stroke-linejoin="round"></path><rect x="25.46" y="393.36" width="7.07" height="7.07" fill="#898781" stroke="#fcfcfb" stroke-width="1.2"></rect><rect x="79.12" y="462.85" width="7.07" height="7.07" fill="#898781" stroke="#fcfcfb" stroke-width="1.2"></rect><rect x="132.77" y="505.44" width="7.07" height="7.07" fill="#898781" stroke="#fcfcfb" stroke-width="1.2"></rect><rect x="186.43" y="518.89" width="7.07" height="7.07" fill="#898781" stroke="#fcfcfb" stroke-width="1.2"></rect><rect x="240.08" y="489.75" width="7.07" height="7.07" fill="#898781" stroke="#fcfcfb" stroke-width="1.2"></rect><rect x="293.73" y="437.07" width="7.07" height="7.07" fill="#898781" stroke="#fcfcfb" stroke-width="1.2"></rect><rect x="347.39" y="390" width="7.07" height="7.07" fill="#898781" stroke="#fcfcfb" stroke-width="1.2"></rect><rect x="401.04" y="332.83" width="7.07" height="7.07" fill="#898781" stroke="#fcfcfb" stroke-width="1.2"></rect><text x="5.71" y="315.25" font-size="11" fill="#0b0b0b" font-weight="600" text-anchor="start">LDL cholesterol (mmol/L)</text></g><line x1="449.08" y1="537.5" x2="817.5" y2="537.5" stroke="#e1e0d9" stroke-width="1"></line><line x1="449.08" y1="512.28" x2="817.5" y2="512.28" stroke="#e1e0d9" stroke-width="1"></line><line x1="449.08" y1="487.06" x2="817.5" y2="487.06" stroke="#e1e0d9" stroke-width="1"></line><line x1="449.08" y1="461.84" x2="817.5" y2="461.84" stroke="#e1e0d9" stroke-width="1"></line><line x1="449.08" y1="436.62" x2="817.5" y2="436.62" stroke="#e1e0d9" stroke-width="1"></line><line x1="449.08" y1="411.4" x2="817.5" y2="411.4" stroke="#e1e0d9" stroke-width="1"></line><line x1="449.08" y1="386.19" x2="817.5" y2="386.19" stroke="#e1e0d9" stroke-width="1"></line><line x1="449.08" y1="360.97" x2="817.5" y2="360.97" stroke="#e1e0d9" stroke-width="1"></line><line x1="449.08" y1="335.75" x2="817.5" y2="335.75" stroke="#e1e0d9" stroke-width="1"></line><line x1="449.08" y1="537.5" x2="817.5" y2="537.5" stroke="#c3c2b7" stroke-width="1"></line><line x1="543.81" y1="537.5" x2="543.81" y2="541.5" stroke="#c3c2b7" stroke-width="1"></line><text x="543.81" y="553.5" font-size="10" fill="#52514e" text-anchor="middle">Apr</text><line x1="650.25" y1="537.5" x2="650.25" y2="541.5" stroke="#c3c2b7" stroke-width="1"></line><text x="650.25" y="553.5" font-size="10" fill="#52514e" text-anchor="middle">Jul</text><line x1="757.85" y1="537.5" x2="757.85" y2="541.5" stroke="#c3c2b7" stroke-width="1"></line><text x="757.85" y="553.5" font-size="10" fill="#52514e" text-anchor="middle">Oct</text><line x1="449.08" y1="335.75" x2="449.08" y2="537.5" stroke="#c3c2b7" stroke-width="1"></line><line x1="445.08" y1="537.5" x2="449.08" y2="537.5" stroke="#c3c2b7" stroke-width="1"></line><text x="441.08" y="540.5" font-size="11" fill="#52514e" text-anchor="end">0.0</text><line x1="445.08" y1="512.28" x2="449.08" y2="512.28" stroke="#c3c2b7" stroke-width="1"></line><text x="441.08" y="515.28" font-size="11" fill="#52514e" text-anchor="end">0.5</text><line x1="445.08" y1="487.06" x2="449.08" y2="487.06" stroke="#c3c2b7" stroke-width="1"></line><text x="441.08" y="490.06" font-size="11" fill="#52514e" text-anchor="end">1.0</text><line x1="445.08" y1="461.84" x2="449.08" y2="461.84" stroke="#c3c2b7" stroke-width="1"></line><text x="441.08" y="464.84" font-size="11" fill="#52514e" text-anchor="end">1.5</text><line x1="445.08" y1="436.62" x2="449.08" y2="436.62" stroke="#c3c2b7" stroke-width="1"></line><text x="441.08" y="439.62" font-size="11" fill="#52514e" text-anchor="end">2.0</text><line x1="445.08" y1="411.4" x2="449.08" y2="411.4" stroke="#c3c2b7" stroke-width="1"></line><text x="441.08" y="414.4" font-size="11" fill="#52514e" text-anchor="end">2.5</text><line x1="445.08" y1="386.19" x2="449.08" y2="386.19" stroke="#c3c2b7" stroke-width="1"></line><text x="441.08" y="389.19" font-size="11" fill="#52514e" text-anchor="end">3.0</text><line x1="445.08" y1="360.97" x2="449.08" y2="360.97" stroke="#c3c2b7" stroke-width="1"></line><text x="441.08" y="363.97" font-size="11" fill="#52514e" text-anchor="end">3.5</text><line x1="445.08" y1="335.75" x2="449.08" y2="335.75" stroke="#c3c2b7" stroke-width="1"></line><text x="441.08" y="338.75" font-size="11" fill="#52514e" text-anchor="end">4.0</text><g><rect x="448.58" y="371.56" width="368.42" height="135.17" fill="#2b9348" stroke="#fcfcfb" opacity="0.22" stroke-width="1"></rect><rect x="448.58" y="506.74" width="368.42" height="10.09" fill="#e09a00" stroke="#fcfcfb" opacity="0.35" stroke-width="1"></rect><rect x="448.58" y="335.25" width="368.42" height="36.32" fill="#e09a00" stroke="#fcfcfb" opacity="0.35" stroke-width="1"></rect><path d="M448.58,432.59L501.21,462.35L553.84,493.12L606.47,499.68L659.1,486.06L711.74,458.82L764.37,417.46L817,392.75" fill="none" stroke="#898781" stroke-width="1.6" stroke-linecap="round" stroke-linejoin="round"></path><circle cx="448.58" cy="432.59" r="3.54" fill="#2b9348" stroke="#fcfcfb" stroke-width="1.2"></circle><circle cx="501.21" cy="462.35" r="3.54" fill="#2b9348" stroke="#fcfcfb" stroke-width="1.2"></circle><circle cx="553.84" cy="493.12" r="3.54" fill="#2b9348" stroke="#fcfcfb" stroke-width="1.2"></circle><circle cx="606.47" cy="499.68" r="3.54" fill="#2b9348" stroke="#fcfcfb" stroke-width="1.2"></circle><circle cx="659.1" cy="486.06" r="3.54" fill="#2b9348" stroke="#fcfcfb" stroke-width="1.2"></circle><circle cx="711.74" cy="458.82" r="3.54" fill="#2b9348" stroke="#fcfcfb" stroke-width="1.2"></circle><circle cx="764.37" cy="417.46" r="3.54" fill="#2b9348" stroke="#fcfcfb" stroke-width="1.2"></circle><circle cx="817" cy="392.75" r="3.54" fill="#2b9348" stroke="#fcfcfb" stroke-width="1.2"></circle><text x="425.29" y="315.25" font-size="11" fill="#0b0b0b" font-weight="600" text-anchor="start">TSH (mIU/L)</text></g><text x="5" y="18" font-size="16" fill="#0b0b0b" font-weight="600" text-anchor="start">Lab panel (synthetic)</text><text x="5" y="33" font-size="12" fill="#52514e" font-weight="normal" text-anchor="start">synthetic data; illustrative reference ranges (the data source owns the real ones)</text></svg>