<svg xmlns="http://www.w3.org/2000/svg" width="1000" height="440" viewBox="0 0 1000 440" font-family="Arial, Liberation Sans, sans-serif"><defs><clipPath id="clip-main"><rect x="191" y="47" width="717" height="373"></rect></clipPath></defs><rect width="100%" height="100%" fill="#fcfcfb"></rect><line x1="191.5" y1="420.5" x2="908.5" y2="420.5" stroke="#c3c2b7" stroke-width="1"></line><text x="550" y="433.5" font-size="12" fill="#52514e" font-weight="normal" text-anchor="middle">range bar: green in range (optimal), yellow near a limit or suboptimal</text><g><rect x="444.06" y="54.77" width="210.88" height="15.54" fill="#2b9348" stroke="#fcfcfb" opacity="0.35" stroke-width="1"></rect><rect x="451.73" y="85.85" width="195.55" height="15.54" fill="#2b9348" stroke="#fcfcfb" opacity="0.35" stroke-width="1"></rect><rect x="451.73" y="116.94" width="92.15" height="15.54" fill="#2b9348" stroke="#fcfcfb" opacity="0.35" stroke-width="1"></rect><rect x="451.73" y="148.02" width="195.55" height="15.54" fill="#2b9348" stroke="#fcfcfb" opacity="0.35" stroke-width="1"></rect><rect x="451.73" y="179.1" width="195.55" height="15.54" fill="#2b9348" stroke="#fcfcfb" opacity="0.35" stroke-width="1"></rect><rect x="451.73" y="210.19" width="195.55" height="15.54" fill="#2b9348" stroke="#fcfcfb" opacity="0.35" stroke-width="1"></rect><rect x="451.73" y="241.27" width="195.55" height="15.54" fill="#2b9348" stroke="#fcfcfb" opacity="0.35" stroke-width="1"></rect><rect x="451.73" y="272.35" width="195.55" height="15.54" fill="#2b9348" stroke="#fcfcfb" opacity="0.35" stroke-width="1"></rect><rect x="451.73" y="303.44" width="195.55" height="15.54" fill="#2b9348" stroke="#fcfcfb" opacity="0.35" stroke-width="1"></rect><rect x="419.14" y="334.52" width="260.73" height="15.54" fill="#2b9348" stroke="#fcfcfb" opacity="0.35" stroke-width="1"></rect><rect x="386.55" y="365.6" width="260.73" height="15.54" fill="#2b9348" stroke="#fcfcfb" opacity="0.35" stroke-width="1"></rect><rect x="386.55" y="54.77" width="57.51" height="15.54" fill="#e09a00" stroke="#fcfcfb" opacity="0.6" stroke-width="1"></rect><rect x="386.55" y="85.85" width="65.18" height="15.54" fill="#e09a00" stroke="#fcfcfb" opacity="0.6" stroke-width="1"></rect><rect x="386.55" y="116.94" width="65.18" height="15.54" fill="#e09a00" stroke="#fcfcfb" opacity="0.6" stroke-width="1"></rect><rect x="386.55" y="148.02" width="65.18" height="15.54" fill="#e09a00" stroke="#fcfcfb" opacity="0.6" stroke-width="1"></rect><rect x="386.55" y="179.1" width="65.18" height="15.54" fill="#e09a00" stroke="#fcfcfb" opacity="0.6" stroke-width="1"></rect><rect x="386.55" y="210.19" width="65.18" height="15.54" fill="#e09a00" stroke="#fcfcfb" opacity="0.6" stroke-width="1"></rect><rect x="386.55" y="241.27" width="65.18" height="15.54" fill="#e09a00" stroke="#fcfcfb" opacity="0.6" stroke-width="1"></rect><rect x="386.55" y="272.35" width="65.18" height="15.54" fill="#e09a00" stroke="#fcfcfb" opacity="0.6" stroke-width="1"></rect><rect x="386.55" y="303.44" width="65.18" height="15.54" fill="#e09a00" stroke="#fcfcfb" opacity="0.6" stroke-width="1"></rect><rect x="386.55" y="334.52" width="32.59" height="15.54" fill="#e09a00" stroke="#fcfcfb" opacity="0.6" stroke-width="1"></rect><rect x="654.94" y="54.77" width="57.51" height="15.54" fill="#e09a00" stroke="#fcfcfb" opacity="0.6" stroke-width="1"></rect><rect x="647.27" y="85.85" width="65.18" height="15.54" fill="#e09a00" stroke="#fcfcfb" opacity="0.6" stroke-width="1"></rect><rect x="543.88" y="116.94" width="168.57" height="15.54" fill="#e09a00" stroke="#fcfcfb" opacity="0.6" stroke-width="1"></rect><rect x="647.27" y="148.02" width="65.18" height="15.54" fill="#e09a00" stroke="#fcfcfb" opacity="0.6" stroke-width="1"></rect><rect x="647.27" y="179.1" width="65.18" height="15.54" fill="#e09a00" stroke="#fcfcfb" opacity="0.6" stroke-width="1"></rect><rect x="647.27" y="210.19" width="65.18" height="15.54" fill="#e09a00" stroke="#fcfcfb" opacity="0.6" stroke-width="1"></rect><rect x="647.27" y="241.27" width="65.18" height="15.54" fill="#e09a00" stroke="#fcfcfb" opacity="0.6" stroke-width="1"></rect><rect x="647.27" y="272.35" width="65.18" height="15.54" fill="#e09a00" stroke="#fcfcfb" opacity="0.6" stroke-width="1"></rect><rect x="647.27" y="303.44" width="65.18" height="15.54" fill="#e09a00" stroke="#fcfcfb" opacity="0.6" stroke-width="1"></rect><rect x="679.86" y="334.52" width="32.59" height="15.54" fill="#e09a00" stroke="#fcfcfb" opacity="0.6" stroke-width="1"></rect><rect x="647.27" y="365.6" width="65.18" height="15.54" fill="#e09a00" stroke="#fcfcfb" opacity="0.6" stroke-width="1"></rect><circle cx="616.6" cy="62.54" r="5.48" fill="#2b9348" stroke="#fcfcfb" stroke-width="1.5"></circle><path d="M814.3,88.88L808.82,98.37L819.78,98.37Z" fill="#d03b3b" stroke="#fcfcfb" stroke-width="1.5"></path><path d="M694.64,122.52L699.03,122.52L699.03,118.14L703.41,118.14L703.41,122.52L707.79,122.52L707.79,126.9L703.41,126.9L703.41,131.28L699.03,131.28L699.03,126.9L694.64,126.9Z" fill="#e09a00" stroke="#fcfcfb" stroke-width="1.5"></path><path d="M359.39,160.54L353.91,151.05L364.86,151.05Z" fill="#d03b3b" stroke="#fcfcfb" stroke-width="1.5"></path><path d="M875.41,182.13L869.93,191.62L880.89,191.62Z" fill="#d03b3b" stroke="#fcfcfb" stroke-width="1.5"></path><circle cx="529.95" cy="217.96" r="5.48" fill="#2b9348" stroke="#fcfcfb" stroke-width="1.5"></circle><circle cx="593.94" cy="249.04" r="5.48" fill="#2b9348" stroke="#fcfcfb" stroke-width="1.5"></circle><circle cx="540.45" cy="280.12" r="5.48" fill="#2b9348" stroke="#fcfcfb" stroke-width="1.5"></circle><path d="M372.06,315.95L366.58,306.46L377.54,306.46Z" fill="#d03b3b" stroke="#fcfcfb" stroke-width="1.5"></path><circle cx="434.35" cy="342.29" r="5.48" fill="#2b9348" stroke="#fcfcfb" stroke-width="1.5"></circle><path d="M692.49,373.38L697.97,367.9L703.45,373.38L697.97,378.85Z" fill="#e09a00" stroke="#fcfcfb" stroke-width="1.5"></path><text x="549.5" y="407.46" font-size="11" fill="#898781" text-anchor="middle">no range</text></g><text x="183.5" y="65.54" font-size="11" fill="#52514e" text-anchor="end">Glucose, fasting  5.1 mmol/L</text><text x="183.5" y="96.62" font-size="11" fill="#52514e" text-anchor="end">HbA1c  6.1 %</text><text x="183.5" y="127.71" font-size="11" fill="#52514e" text-anchor="end">LDL cholesterol  4.8 mmol/L</text><text x="183.5" y="158.79" font-size="11" fill="#52514e" text-anchor="end">HDL cholesterol  0.9 mmol/L</text><text x="183.5" y="189.87" font-size="11" fill="#52514e" text-anchor="end">Triglycerides  2.4 mmol/L</text><text x="183.5" y="220.96" font-size="11" fill="#52514e" text-anchor="end">Creatinine  82 umol/L</text><text x="183.5" y="252.04" font-size="11" fill="#52514e" text-anchor="end">ALT  28 U/L</text><text x="183.5" y="283.12" font-size="11" fill="#52514e" text-anchor="end">TSH  2.1 mIU/L</text><text x="183.5" y="314.21" font-size="11" fill="#52514e" text-anchor="end">Ferritin  18 ug/L</text><text x="183.5" y="345.29" font-size="11" fill="#52514e" text-anchor="end">Vitamin D  61 nmol/L</text><text x="183.5" y="376.38" font-size="11" fill="#52514e" text-anchor="end">ApoB (upper limit only)  86 mg/dL</text><text x="183.5" y="407.46" font-size="11" fill="#52514e" text-anchor="end">Lp(a) (no range supplied)  40 nmol/L</text><path d="M931.5,56.37L927.03,48.63L935.97,48.63Z" fill="#d03b3b" stroke="#fcfcfb" stroke-width="1.5"></path><text x="941" y="55.5" font-size="11" fill="#52514e" text-anchor="start">low</text><path d="M927.03,67.5L931.5,63.03L935.97,67.5L931.5,71.97Z" fill="#e09a00" stroke="#fcfcfb" stroke-width="1.5"></path><text x="941" y="70.5" font-size="11" fill="#52514e" text-anchor="start">near limit</text><path d="M926.13,80.71L929.71,80.71L929.71,77.13L933.29,77.13L933.29,80.71L936.87,80.71L936.87,84.29L933.29,84.29L933.29,87.87L929.71,87.87L929.71,84.29L926.13,84.29Z" fill="#e09a00" stroke="#fcfcfb" stroke-width="1.5"></path><text x="941" y="85.5" font-size="11" fill="#52514e" text-anchor="start">suboptimal</text><circle cx="931.5" cy="97.5" r="4.47" fill="#2b9348" stroke="#fcfcfb" stroke-width="1.5"></circle><text x="941" y="100.5" font-size="11" fill="#52514e" text-anchor="start">in range</text><path d="M931.5,108.63L927.03,116.37L935.97,116.37Z" fill="#d03b3b" stroke="#fcfcfb" stroke-width="1.5"></path><text x="941" y="115.5" font-size="11" fill="#52514e" text-anchor="start">high</text><rect x="927.03" y="123.03" width="8.94" height="8.94" fill="#898781" stroke="#fcfcfb" stroke-width="1.5"></rect><text x="941" y="130.5" font-size="11" fill="#52514e" text-anchor="start">no range</text><text x="5" y="18" font-size="16" fill="#0b0b0b" font-weight="600" text-anchor="start">Latest results (synthetic)</text><text x="5" y="33" font-size="12" fill="#52514e" font-weight="normal" text-anchor="start">illustrative reference and optimal ranges; the data source owns the real ones</text></svg>