<svg xmlns="http://www.w3.org/2000/svg" width="900" height="380" viewBox="0 0 900 380" font-family="Arial, Liberation Sans, sans-serif"><defs><clipPath id="clip-main"><rect x="96" y="47" width="721" height="309"></rect></clipPath></defs><rect width="100%" height="100%" fill="#fcfcfb"></rect><g><rect x="96" y="47" width="144.2" height="51.5" fill="#2b9348" stroke="#fcfcfb" opacity="0.4" stroke-width="2"></rect><rect x="96" y="98.5" width="144.2" height="51.5" fill="#d03b3b" stroke="#fcfcfb" opacity="0.4" stroke-width="2"></rect><rect x="96" y="150" width="144.2" height="51.5" fill="#2b9348" stroke="#fcfcfb" opacity="0.4" stroke-width="2"></rect><rect x="96" y="201.5" width="144.2" height="51.5" fill="#2b9348" stroke="#fcfcfb" opacity="0.4" stroke-width="2"></rect><rect x="96" y="253" width="144.2" height="51.5" fill="#898781" stroke="#fcfcfb" opacity="0.4" stroke-width="2"></rect><rect x="96" y="304.5" width="144.2" height="51.5" fill="#e09a00" stroke="#fcfcfb" opacity="0.4" stroke-width="2"></rect><rect x="240.2" y="47" width="144.2" height="51.5" fill="#2b9348" stroke="#fcfcfb" opacity="0.4" stroke-width="2"></rect><rect x="240.2" y="98.5" width="144.2" height="51.5" fill="#2b9348" stroke="#fcfcfb" opacity="0.4" stroke-width="2"></rect><rect x="240.2" y="150" width="144.2" height="51.5" fill="#e09a00" stroke="#fcfcfb" opacity="0.4" stroke-width="2"></rect><rect x="240.2" y="201.5" width="144.2" height="51.5" fill="#2b9348" stroke="#fcfcfb" opacity="0.4" stroke-width="2"></rect><rect x="240.2" y="253" width="144.2" height="51.5" fill="#898781" stroke="#fcfcfb" opacity="0.4" stroke-width="2"></rect><rect x="240.2" y="304.5" width="144.2" height="51.5" fill="#2b9348" stroke="#fcfcfb" opacity="0.4" stroke-width="2"></rect><rect x="384.4" y="47" width="144.2" height="51.5" fill="#2b9348" stroke="#fcfcfb" opacity="0.4" stroke-width="2"></rect><rect x="384.4" y="98.5" width="144.2" height="51.5" fill="#2b9348" stroke="#fcfcfb" opacity="0.4" stroke-width="2"></rect><rect x="384.4" y="150" width="144.2" height="51.5" fill="#d03b3b" stroke="#fcfcfb" opacity="0.4" stroke-width="2"></rect><rect x="384.4" y="201.5" width="144.2" height="51.5" fill="#2b9348" stroke="#fcfcfb" opacity="0.4" stroke-width="2"></rect><rect x="384.4" y="253" width="144.2" height="51.5" fill="#d03b3b" stroke="#fcfcfb" opacity="0.4" stroke-width="2"></rect><rect x="384.4" y="304.5" width="144.2" height="51.5" fill="#2b9348" stroke="#fcfcfb" opacity="0.4" stroke-width="2"></rect><rect x="528.6" y="47" width="144.2" height="51.5" fill="#e09a00" stroke="#fcfcfb" opacity="0.4" stroke-width="2"></rect><rect x="528.6" y="98.5" width="144.2" height="51.5" fill="#d03b3b" stroke="#fcfcfb" opacity="0.4" stroke-width="2"></rect><rect x="528.6" y="150" width="144.2" height="51.5" fill="#2b9348" stroke="#fcfcfb" opacity="0.4" stroke-width="2"></rect><rect x="528.6" y="201.5" width="144.2" height="51.5" fill="#2b9348" stroke="#fcfcfb" opacity="0.4" stroke-width="2"></rect><rect x="528.6" y="253" width="144.2" height="51.5" fill="#e09a00" stroke="#fcfcfb" opacity="0.4" stroke-width="2"></rect><rect x="528.6" y="304.5" width="144.2" height="51.5" fill="#2b9348" stroke="#fcfcfb" opacity="0.4" stroke-width="2"></rect><rect x="672.8" y="47" width="144.2" height="51.5" fill="#e09a00" stroke="#fcfcfb" opacity="0.4" stroke-width="2"></rect><rect x="672.8" y="98.5" width="144.2" height="51.5" fill="#d03b3b" stroke="#fcfcfb" opacity="0.4" stroke-width="2"></rect><rect x="672.8" y="150" width="144.2" height="51.5" fill="#2b9348" stroke="#fcfcfb" opacity="0.4" stroke-width="2"></rect><rect x="672.8" y="201.5" width="144.2" height="51.5" fill="#2b9348" stroke="#fcfcfb" opacity="0.4" stroke-width="2"></rect><rect x="672.8" y="253" width="144.2" height="51.5" fill="#e09a00" stroke="#fcfcfb" opacity="0.4" stroke-width="2"></rect><rect x="672.8" y="304.5" width="144.2" height="51.5" fill="#d03b3b" stroke="#fcfcfb" opacity="0.4" stroke-width="2"></rect><text x="168.1" y="75.75" font-size="11" fill="#0b0b0b" text-anchor="middle">● 4.81</text><text x="168.1" y="127.25" font-size="11" fill="#0b0b0b" text-anchor="middle">▲ 5.73</text><text x="168.1" y="178.75" font-size="11" fill="#0b0b0b" text-anchor="middle">● 3.85</text><text x="168.1" y="230.25" font-size="11" fill="#0b0b0b" text-anchor="middle">● 0.59</text><text x="168.1" y="281.75" font-size="11" fill="#0b0b0b" text-anchor="middle">? 54.1</text><text x="168.1" y="333.25" font-size="11" fill="#0b0b0b" text-anchor="middle">◆ 36</text><text x="312.3" y="75.75" font-size="11" fill="#0b0b0b" text-anchor="middle">● 4.55</text><text x="312.3" y="127.25" font-size="11" fill="#0b0b0b" text-anchor="middle">● 5.12</text><text x="312.3" y="178.75" font-size="11" fill="#0b0b0b" text-anchor="middle">◆ 4.9</text><text x="312.3" y="230.25" font-size="11" fill="#0b0b0b" text-anchor="middle">● 1.52</text><text x="312.3" y="281.75" font-size="11" fill="#0b0b0b" text-anchor="middle">? 22.3</text><text x="312.3" y="333.25" font-size="11" fill="#0b0b0b" text-anchor="middle">● 20.3</text><text x="456.5" y="75.75" font-size="11" fill="#0b0b0b" text-anchor="middle">● 4.89</text><text x="456.5" y="127.25" font-size="11" fill="#0b0b0b" text-anchor="middle">● 5.02</text><text x="456.5" y="178.75" font-size="11" fill="#0b0b0b" text-anchor="middle">▲ 5.18</text><text x="456.5" y="230.25" font-size="11" fill="#0b0b0b" text-anchor="middle">● 3.09</text><text x="456.5" y="281.75" font-size="11" fill="#0b0b0b" text-anchor="middle">▼ 14.3</text><text x="456.5" y="333.25" font-size="11" fill="#0b0b0b" text-anchor="middle">● 18.5</text><text x="600.7" y="75.75" font-size="11" fill="#0b0b0b" text-anchor="middle">◆ 5.51</text><text x="600.7" y="127.25" font-size="11" fill="#0b0b0b" text-anchor="middle">▲ 5.7</text><text x="600.7" y="178.75" font-size="11" fill="#0b0b0b" text-anchor="middle">● 4.23</text><text x="600.7" y="230.25" font-size="11" fill="#0b0b0b" text-anchor="middle">● 3.06</text><text x="600.7" y="281.75" font-size="11" fill="#0b0b0b" text-anchor="middle">◆ 37.8</text><text x="600.7" y="333.25" font-size="11" fill="#0b0b0b" text-anchor="middle">● 33.3</text><text x="744.9" y="75.75" font-size="11" fill="#0b0b0b" text-anchor="middle">◆ 5.36</text><text x="744.9" y="127.25" font-size="11" fill="#0b0b0b" text-anchor="middle">▲ 5.94</text><text x="744.9" y="178.75" font-size="11" fill="#0b0b0b" text-anchor="middle">● 3.52</text><text x="744.9" y="230.25" font-size="11" fill="#0b0b0b" text-anchor="middle">● 1.28</text><text x="744.9" y="281.75" font-size="11" fill="#0b0b0b" text-anchor="middle">◆ 61.8</text><text x="744.9" y="333.25" font-size="11" fill="#0b0b0b" text-anchor="middle">▲ 43.1</text></g><line x1="96.5" y1="356.5" x2="817.5" y2="356.5" stroke="#c3c2b7" stroke-width="1"></line><line x1="168.5" y1="356.5" x2="168.5" y2="360.5" stroke="#c3c2b7" stroke-width="1"></line><text x="168.1" y="373.5" font-size="11" fill="#52514e" text-anchor="middle">2025-01-15</text><line x1="312.5" y1="356.5" x2="312.5" y2="360.5" stroke="#c3c2b7" stroke-width="1"></line><text x="312.3" y="373.5" font-size="11" fill="#52514e" text-anchor="middle">2025-04-15</text><line x1="456.5" y1="356.5" x2="456.5" y2="360.5" stroke="#c3c2b7" stroke-width="1"></line><text x="456.5" y="373.5" font-size="11" fill="#52514e" text-anchor="middle">2025-07-14</text><line x1="600.5" y1="356.5" x2="600.5" y2="360.5" stroke="#c3c2b7" stroke-width="1"></line><text x="600.7" y="373.5" font-size="11" fill="#52514e" text-anchor="middle">2025-10-12</text><line x1="744.5" y1="356.5" x2="744.5" y2="360.5" stroke="#c3c2b7" stroke-width="1"></line><text x="744.9" y="373.5" font-size="11" fill="#52514e" text-anchor="middle">2026-01-10</text><text x="92.5" y="75.75" font-size="11" fill="#52514e" text-anchor="end">Glucose (mmol/L)</text><text x="92.5" y="127.25" font-size="11" fill="#52514e" text-anchor="end">HbA1c (%)</text><text x="92.5" y="178.75" font-size="11" fill="#52514e" text-anchor="end">LDL (mmol/L)</text><text x="92.5" y="230.25" font-size="11" fill="#52514e" text-anchor="end">TSH (mIU/L)</text><text x="92.5" y="281.75" font-size="11" fill="#52514e" text-anchor="end">Ferritin (ug/L)</text><text x="92.5" y="333.25" font-size="11" fill="#52514e" text-anchor="end">ALT (U/L)</text><circle cx="840.5" cy="52.5" r="4.47" fill="#d03b3b" stroke="#fcfcfb" stroke-width="1.5" opacity="0.4"></circle><text x="850" y="55.5" font-size="11" fill="#52514e" text-anchor="start">low</text><circle cx="840.5" cy="67.5" r="4.47" fill="#e09a00" stroke="#fcfcfb" stroke-width="1.5" opacity="0.4"></circle><text x="850" y="70.5" font-size="11" fill="#52514e" text-anchor="start">near limit</text><circle cx="840.5" cy="82.5" r="4.47" fill="#2b9348" stroke="#fcfcfb" stroke-width="1.5" opacity="0.4"></circle><text x="850" y="85.5" font-size="11" fill="#52514e" text-anchor="start">in range</text><circle cx="840.5" cy="97.5" r="4.47" fill="#d03b3b" stroke="#fcfcfb" stroke-width="1.5" opacity="0.4"></circle><text x="850" y="100.5" font-size="11" fill="#52514e" text-anchor="start">high</text><circle cx="840.5" cy="112.5" r="4.47" fill="#898781" stroke="#fcfcfb" stroke-width="1.5" opacity="0.4"></circle><text x="850" y="115.5" font-size="11" fill="#52514e" text-anchor="start">no range</text><text x="5" y="18" font-size="16" fill="#0b0b0b" font-weight="600" text-anchor="start">Results by draw (synthetic)</text><text x="5" y="33" font-size="12" fill="#52514e" font-weight="normal" text-anchor="start">synthetic data; illustrative reference ranges (the data source owns the real ones)</text></svg>