<svg xmlns="http://www.w3.org/2000/svg" width="1000" height="400" viewBox="0 0 1000 400" font-family="Arial, Liberation Sans, sans-serif"><defs><clipPath id="clip-main"><rect x="174" y="47" width="723" height="333"></rect></clipPath></defs><rect width="100%" height="100%" fill="#fcfcfb"></rect><line x1="174.5" y1="380.5" x2="897.5" y2="380.5" stroke="#c3c2b7" stroke-width="1"></line><text x="536" y="393.5" font-size="12" fill="#52514e" font-weight="normal" text-anchor="middle">position within each reference range (left edge = low limit, right edge = high limit)</text><g><rect x="371.18" y="58.89" width="328.64" height="23.79" fill="#2a9d8f" stroke="#fcfcfb" opacity="0.3" stroke-width="1"></rect><rect x="371.18" y="106.46" width="328.64" height="23.79" fill="#2a9d8f" stroke="#fcfcfb" opacity="0.3" stroke-width="1"></rect><rect x="371.18" y="154.04" width="328.64" height="23.79" fill="#2a9d8f" stroke="#fcfcfb" opacity="0.3" stroke-width="1"></rect><rect x="371.18" y="201.61" width="328.64" height="23.79" fill="#2a9d8f" stroke="#fcfcfb" opacity="0.3" stroke-width="1"></rect><rect x="371.18" y="249.18" width="328.64" height="23.79" fill="#2a9d8f" stroke="#fcfcfb" opacity="0.3" stroke-width="1"></rect><rect x="371.18" y="296.75" width="328.64" height="23.79" fill="#2a9d8f" stroke="#fcfcfb" opacity="0.3" stroke-width="1"></rect><rect x="371.18" y="344.32" width="328.64" height="23.79" fill="#2a9d8f" stroke="#fcfcfb" opacity="0.3" stroke-width="1"></rect><line x1="779.14" y1="70.79" x2="586.5" y2="70.79" stroke="#0ca30c" stroke-width="3"></line><line x1="864.14" y1="118.36" x2="720.36" y2="118.36" stroke="#0ca30c" stroke-width="3"></line><line x1="623.98" y1="165.93" x2="851.5" y2="165.93" stroke="#d03b3b" stroke-width="3"></line><line x1="349.27" y1="213.5" x2="384.57" y2="213.5" stroke="#0ca30c" stroke-width="3"></line><line x1="610.19" y1="261.07" x2="590.27" y2="261.07" stroke="#0ca30c" stroke-width="3"></line><line x1="318.6" y1="308.64" x2="476.35" y2="308.64" stroke="#0ca30c" stroke-width="3"></line><line x1="553.76" y1="356.21" x2="754.59" y2="356.21" stroke="#d03b3b" stroke-width="3"></line><circle cx="779.14" cy="70.79" r="5" fill="none" stroke="#0b0b0b" stroke-width="2" opacity="0.7"></circle><circle cx="864.14" cy="118.36" r="5" fill="none" stroke="#0b0b0b" stroke-width="2" opacity="0.7"></circle><circle cx="623.98" cy="165.93" r="5" fill="none" stroke="#0b0b0b" stroke-width="2" opacity="0.7"></circle><circle cx="349.27" cy="213.5" r="5" fill="none" stroke="#0b0b0b" stroke-width="2" opacity="0.7"></circle><circle cx="610.19" cy="261.07" r="5" fill="none" stroke="#0b0b0b" stroke-width="2" opacity="0.7"></circle><circle cx="318.6" cy="308.64" r="5" fill="none" stroke="#0b0b0b" stroke-width="2" opacity="0.7"></circle><circle cx="553.76" cy="356.21" r="5" fill="none" stroke="#0b0b0b" stroke-width="2" opacity="0.7"></circle><circle cx="586.5" cy="70.79" r="5.24" fill="#0b0b0b" stroke="#fcfcfb" stroke-width="1.5"></circle><circle cx="720.36" cy="118.36" r="5.24" fill="#0b0b0b" stroke="#fcfcfb" stroke-width="1.5"></circle><circle cx="851.5" cy="165.93" r="5.24" fill="#0b0b0b" stroke="#fcfcfb" stroke-width="1.5"></circle><circle cx="384.57" cy="213.5" r="5.24" fill="#0b0b0b" stroke="#fcfcfb" stroke-width="1.5"></circle><circle cx="590.27" cy="261.07" r="5.24" fill="#0b0b0b" stroke="#fcfcfb" stroke-width="1.5"></circle><circle cx="476.35" cy="308.64" r="5.24" fill="#0b0b0b" stroke="#fcfcfb" stroke-width="1.5"></circle><circle cx="754.59" cy="356.21" r="5.24" fill="#0b0b0b" stroke="#fcfcfb" stroke-width="1.5"></circle></g><text x="170.5" y="73.79" font-size="11" fill="#52514e" text-anchor="end">LDL cholesterol  5.6 &gt; 3.9 mmol/L</text><text x="170.5" y="121.36" font-size="11" fill="#52514e" text-anchor="end">HbA1c  6.4 &gt; 5.7 %</text><text x="170.5" y="168.93" font-size="11" fill="#52514e" text-anchor="end">Triglycerides  1.4 &gt; 2.3 mmol/L</text><text x="170.5" y="216.5" font-size="11" fill="#52514e" text-anchor="end">Ferritin  12 &gt; 41 ug/L</text><text x="170.5" y="264.07" font-size="11" fill="#52514e" text-anchor="end">ALT  31 &gt; 29 U/L</text><text x="170.5" y="311.64" font-size="11" fill="#52514e" text-anchor="end">Vitamin D  38 &gt; 74 nmol/L</text><text x="170.5" y="359.21" font-size="11" fill="#52514e" text-anchor="end">TSH  2.4 &gt; 4.6 mIU/L</text><circle cx="921" cy="53" r="4.47" fill="transparent" stroke="#0ca30c" stroke-width="3"></circle><text x="931" y="56" font-size="11" fill="#52514e" text-anchor="start">✔ improved</text><circle cx="921" cy="71" r="4.47" fill="transparent" stroke="#d03b3b" stroke-width="3"></circle><text x="931" y="74" font-size="11" fill="#52514e" text-anchor="start">✖ worsened</text><circle cx="921" cy="89" r="4.47" fill="transparent" stroke="#898781" stroke-width="3"></circle><text x="931" y="92" font-size="11" fill="#52514e" text-anchor="start">● unchanged</text><text x="5" y="18" font-size="16" fill="#0b0b0b" font-weight="600" text-anchor="start">Change between two draws (synthetic)</text><text x="5" y="33" font-size="12" fill="#52514e" font-weight="normal" text-anchor="start">hollow = earlier, filled = later; illustrative ranges</text></svg>