<svg xmlns="http://www.w3.org/2000/svg" width="1000" height="360" viewBox="0 0 1000 360" font-family="Arial, Liberation Sans, sans-serif"><defs><clipPath id="clip-main"><rect x="274" y="47" width="643" height="274"></rect></clipPath></defs><rect width="100%" height="100%" fill="#fcfcfb"></rect><line x1="274.5" y1="321.5" x2="917.5" y2="321.5" stroke="#c3c2b7" stroke-width="1"></line><line x1="274.5" y1="321.5" x2="274.5" y2="325.5" stroke="#c3c2b7" stroke-width="1"></line><text x="274.5" y="338.5" font-size="11" fill="#52514e" text-anchor="start">0</text><line x1="420.64" y1="321.5" x2="420.64" y2="325.5" stroke="#c3c2b7" stroke-width="1"></line><text x="420.64" y="338.5" font-size="11" fill="#52514e" text-anchor="middle">50</text><line x1="566.77" y1="321.5" x2="566.77" y2="325.5" stroke="#c3c2b7" stroke-width="1"></line><text x="566.77" y="338.5" font-size="11" fill="#52514e" text-anchor="middle">100</text><line x1="712.91" y1="321.5" x2="712.91" y2="325.5" stroke="#c3c2b7" stroke-width="1"></line><text x="712.91" y="338.5" font-size="11" fill="#52514e" text-anchor="middle">150</text><line x1="859.05" y1="321.5" x2="859.05" y2="325.5" stroke="#c3c2b7" stroke-width="1"></line><text x="859.05" y="338.5" font-size="11" fill="#52514e" text-anchor="middle">200</text><text x="596" y="353.5" font-size="12" fill="#52514e" font-weight="normal" text-anchor="middle">mg/dL</text><text x="266.5" y="77.4" font-size="11" fill="#52514e" text-anchor="end">Total cholesterol  188 mg/dL  (goal &lt;200)  ◆ near limit</text><text x="266.5" y="132.2" font-size="11" fill="#52514e" text-anchor="end">LDL cholesterol  128 mg/dL  (goal &lt;100)  ▲ high</text><text x="266.5" y="187" font-size="11" fill="#52514e" text-anchor="end">HDL cholesterol  56 mg/dL  (goal &gt;40)  ● in range</text><text x="266.5" y="241.8" font-size="11" fill="#52514e" text-anchor="end">Triglycerides  142 mg/dL  (goal &lt;150)  ◆ near limit</text><text x="266.5" y="296.6" font-size="11" fill="#52514e" text-anchor="end">Non-HDL cholesterol  162 mg/dL  (goal &lt;130)  ▲ high</text><g><path d="M274,60.84H819.47A4,4 0 0 1 823.47,64.84V83.96A4,4 0 0 1 819.47,87.96H274V60.84Z" fill="#e09a00"></path><path d="M274,115.64H644.11A4,4 0 0 1 648.11,119.64V138.76A4,4 0 0 1 644.11,142.76H274V115.64Z" fill="#d03b3b"></path><path d="M274,170.44H433.67A4,4 0 0 1 437.67,174.44V193.56A4,4 0 0 1 433.67,197.56H274V170.44Z" fill="#2b9348"></path><path d="M274,225.24H685.03A4,4 0 0 1 689.03,229.24V248.36A4,4 0 0 1 685.03,252.36H274V225.24Z" fill="#e09a00"></path><path d="M274,280.04H743.48A4,4 0 0 1 747.48,284.04V303.16A4,4 0 0 1 743.48,307.16H274V280.04Z" fill="#d03b3b"></path><line x1="858.55" y1="61.4" x2="858.55" y2="87.4" stroke="#0b0b0b" stroke-width="3" stroke-opacity="0.7"></line><line x1="566.27" y1="116.2" x2="566.27" y2="142.2" stroke="#0b0b0b" stroke-width="3" stroke-opacity="0.7"></line><line x1="390.91" y1="171" x2="390.91" y2="197" stroke="#0b0b0b" stroke-width="3" stroke-opacity="0.7"></line><line x1="712.41" y1="225.8" x2="712.41" y2="251.8" stroke="#0b0b0b" stroke-width="3" stroke-opacity="0.7"></line><line x1="653.95" y1="280.6" x2="653.95" y2="306.6" stroke="#0b0b0b" stroke-width="3" stroke-opacity="0.7"></line><circle cx="899.46" cy="74.4" r="4.74" fill="none" stroke="#0b0b0b" stroke-width="2" opacity="0.7"></circle><circle cx="686.1" cy="129.2" r="4.74" fill="none" stroke="#0b0b0b" stroke-width="2" opacity="0.7"></circle><circle cx="411.37" cy="184" r="4.74" fill="none" stroke="#0b0b0b" stroke-width="2" opacity="0.7"></circle><circle cx="773.79" cy="238.8" r="4.74" fill="none" stroke="#0b0b0b" stroke-width="2" opacity="0.7"></circle><circle cx="803.01" cy="293.6" r="4.74" fill="none" stroke="#0b0b0b" stroke-width="2" opacity="0.7"></circle></g><circle cx="940.5" cy="52.5" r="4.47" fill="#d03b3b"></circle><text x="950" y="55.5" font-size="11" fill="#52514e" text-anchor="start">low</text><circle cx="940.5" cy="66.5" r="4.47" fill="#e09a00"></circle><text x="950" y="69.5" font-size="11" fill="#52514e" text-anchor="start">near limit</text><circle cx="940.5" cy="80.5" r="4.47" fill="#2b9348"></circle><text x="950" y="83.5" font-size="11" fill="#52514e" text-anchor="start">in range</text><circle cx="940.5" cy="94.5" r="4.47" fill="#d03b3b"></circle><text x="950" y="97.5" font-size="11" fill="#52514e" text-anchor="start">high</text><circle cx="940.5" cy="108.5" r="4.47" fill="#898781"></circle><text x="950" y="111.5" font-size="11" fill="#52514e" text-anchor="start">no range</text><text x="5" y="18" font-size="16" fill="#0b0b0b" font-weight="600" text-anchor="start">Lipid panel (synthetic)</text><text x="5" y="33" font-size="12" fill="#52514e" font-weight="normal" text-anchor="start">synthetic data; illustrative goals; tick = goal, hollow marker = prior draw</text></svg>