<svg xmlns="http://www.w3.org/2000/svg" width="1000" height="300" viewBox="0 0 1000 300" font-family="Arial, Liberation Sans, sans-serif"><defs><clipPath id="clip-main"><rect x="47" y="47" width="870" height="214"></rect></clipPath></defs><rect width="100%" height="100%" fill="#fcfcfb"></rect><line x1="47.5" y1="261.5" x2="917.5" y2="261.5" stroke="#c3c2b7" stroke-width="1"></line><line x1="47.5" y1="261.5" x2="47.5" y2="265.5" stroke="#c3c2b7" stroke-width="1"></line><text x="47.5" y="278.5" font-size="11" fill="#52514e" text-anchor="start">0%</text><line x1="265" y1="261.5" x2="265" y2="265.5" stroke="#c3c2b7" stroke-width="1"></line><text x="265" y="278.5" font-size="11" fill="#52514e" text-anchor="middle">25%</text><line x1="482.5" y1="261.5" x2="482.5" y2="265.5" stroke="#c3c2b7" stroke-width="1"></line><text x="482.5" y="278.5" font-size="11" fill="#52514e" text-anchor="middle">50%</text><line x1="700" y1="261.5" x2="700" y2="265.5" stroke="#c3c2b7" stroke-width="1"></line><text x="700" y="278.5" font-size="11" fill="#52514e" text-anchor="middle">75%</text><line x1="917.5" y1="261.5" x2="917.5" y2="265.5" stroke="#c3c2b7" stroke-width="1"></line><text x="917.5" y="278.5" font-size="11" fill="#52514e" text-anchor="end">100%</text><text x="482.5" y="293.5" font-size="12" fill="#52514e" font-weight="normal" text-anchor="middle">share of readings</text><text x="43.5" y="85.67" font-size="11" fill="#52514e" text-anchor="end">Week 1</text><text x="43.5" y="157" font-size="11" fill="#52514e" text-anchor="end">Week 2</text><text x="43.5" y="228.33" font-size="11" fill="#52514e" text-anchor="end">Week 3</text><g><path d="M58.77,59.55H744.7A4,4 0 0 1 748.7,63.55V101.78A4,4 0 0 1 744.7,105.78H58.77A4,4 0 0 1 54.77,101.78V63.55A4,4 0 0 1 58.77,59.55Z" fill="#2b9348" stroke="#fcfcfb" stroke-width="1.5"></path><path d="M50.88,59.55H50.88A3.88,3.88 0 0 1 54.77,63.44V101.89A3.88,3.88 0 0 1 50.88,105.78H50.88A3.88,3.88 0 0 1 47,101.89V63.44A3.88,3.88 0 0 1 50.88,59.55Z" fill="#d03b3b" stroke="#fcfcfb" stroke-width="1.5"></path><path d="M752.7,59.55H905.23A4,4 0 0 1 909.23,63.55V101.78A4,4 0 0 1 905.23,105.78H752.7A4,4 0 0 1 748.7,101.78V63.55A4,4 0 0 1 752.7,59.55Z" fill="#d03b3b" stroke="#fcfcfb" opacity="0.5" stroke-width="1.5"></path><path d="M913.12,59.55H913.12A3.88,3.88 0 0 1 917,63.44V101.89A3.88,3.88 0 0 1 913.12,105.78H913.12A3.88,3.88 0 0 1 909.23,101.89V63.44A3.88,3.88 0 0 1 913.12,59.55Z" fill="#d03b3b" stroke="#fcfcfb" stroke-width="1.5"></path><path d="M58.77,130.89H837.91A4,4 0 0 1 841.91,134.89V173.11A4,4 0 0 1 837.91,177.11H58.77A4,4 0 0 1 54.77,173.11V134.89A4,4 0 0 1 58.77,130.89Z" fill="#2b9348" stroke="#fcfcfb" stroke-width="1.5"></path><path d="M50.88,130.89H50.88A3.88,3.88 0 0 1 54.77,134.77V173.23A3.88,3.88 0 0 1 50.88,177.11H50.88A3.88,3.88 0 0 1 47,173.23V134.77A3.88,3.88 0 0 1 50.88,130.89Z" fill="#d03b3b" stroke="#fcfcfb" stroke-width="1.5"></path><path d="M845.91,130.89H913A4,4 0 0 1 917,134.89V173.11A4,4 0 0 1 913,177.11H845.91A4,4 0 0 1 841.91,173.11V134.89A4,4 0 0 1 845.91,130.89Z" fill="#d03b3b" stroke="#fcfcfb" opacity="0.5" stroke-width="1.5"></path><path d="M58.77,202.22H900.05A4,4 0 0 1 904.05,206.22V244.45A4,4 0 0 1 900.05,248.45H58.77A4,4 0 0 1 54.77,244.45V206.22A4,4 0 0 1 58.77,202.22Z" fill="#2b9348" stroke="#fcfcfb" stroke-width="1.5"></path><path d="M50.88,202.22H50.88A3.88,3.88 0 0 1 54.77,206.11V244.56A3.88,3.88 0 0 1 50.88,248.45H50.88A3.88,3.88 0 0 1 47,244.56V206.11A3.88,3.88 0 0 1 50.88,202.22Z" fill="#d03b3b" stroke="#fcfcfb" stroke-width="1.5"></path><path d="M908.05,202.22H913A4,4 0 0 1 917,206.22V244.45A4,4 0 0 1 913,248.45H908.05A4,4 0 0 1 904.05,244.45V206.22A4,4 0 0 1 908.05,202.22Z" fill="#d03b3b" stroke="#fcfcfb" opacity="0.5" stroke-width="1.5"></path><text x="401.73" y="86.67" font-size="12" fill="#fcfcfb" font-weight="bold" text-anchor="middle">80%</text><text x="828.96" y="86.67" font-size="12" fill="#fcfcfb" font-weight="bold" text-anchor="middle">18%</text><text x="448.34" y="158" font-size="12" fill="#fcfcfb" font-weight="bold" text-anchor="middle">90%</text><text x="879.46" y="158" font-size="12" fill="#fcfcfb" font-weight="bold" text-anchor="middle">9%</text><text x="479.41" y="229.33" font-size="12" fill="#fcfcfb" font-weight="bold" text-anchor="middle">98%</text><line x1="663.77" y1="50.57" x2="663.77" y2="114.77" stroke="#0b0b0b" stroke-width="2" stroke-opacity="0.7"></line><line x1="663.77" y1="121.9" x2="663.77" y2="186.1" stroke="#0b0b0b" stroke-width="2" stroke-opacity="0.7"></line><line x1="663.77" y1="193.23" x2="663.77" y2="257.43" stroke="#0b0b0b" stroke-width="2" stroke-opacity="0.7"></line></g><circle cx="940.5" cy="52.5" r="4.47" fill="#d03b3b" stroke="#fcfcfb" stroke-width="1.5"></circle><text x="950" y="55.5" font-size="11" fill="#52514e" text-anchor="start">very low</text><circle cx="940.5" cy="67.5" r="4.47" fill="#d03b3b" stroke="#fcfcfb" stroke-width="1.5"></circle><text x="950" y="70.5" font-size="11" fill="#52514e" text-anchor="start">low</text><circle cx="940.5" cy="82.5" r="4.47" fill="#2b9348" stroke="#fcfcfb" stroke-width="1.5"></circle><text x="950" y="85.5" font-size="11" fill="#52514e" text-anchor="start">in range</text><circle cx="940.5" cy="97.5" r="4.47" fill="#d03b3b" stroke="#fcfcfb" stroke-width="1.5"></circle><text x="950" y="100.5" font-size="11" fill="#52514e" text-anchor="start">high</text><circle cx="940.5" cy="112.5" r="4.47" fill="#d03b3b" stroke="#fcfcfb" stroke-width="1.5"></circle><text x="950" y="115.5" font-size="11" fill="#52514e" text-anchor="start">very high</text><text x="5" y="18" font-size="16" fill="#0b0b0b" font-weight="600" text-anchor="start">Time in range by week (synthetic)</text><text x="5" y="33" font-size="12" fill="#52514e" font-weight="normal" text-anchor="start">synthetic data; the cut-offs and the target are illustrative (the data source or care team supplies the real ones); tick: illustrative 70% target</text></svg>