<svg xmlns="http://www.w3.org/2000/svg" xmlns:xlink="http://www.w3.org/1999/xlink" version="1.1" class="marks" width="720" height="360" viewBox="0 0 720 360"><rect width="720" height="360" fill="#fcfcfb"/><g fill="none" stroke-miterlimit="4" transform="translate(63,59)"><g class="mark-group role-frame root" role="graphics-object" aria-roledescription="group mark container"><g transform="translate(0,0)"><path class="background" aria-hidden="true" d="M0,0h637v237h-637Z"/><g><g class="mark-group role-axis" aria-hidden="true"><g transform="translate(0.5,0.5)"><path class="background" aria-hidden="true" d="M0,0h0v0h0Z" pointer-events="none"/><g><g class="mark-rule role-axis-grid" pointer-events="none"><line transform="translate(0,221)" x2="637" y2="0" stroke="#e1e0d9" stroke-width="1" opacity="1"/><line transform="translate(0,187)" x2="637" y2="0" stroke="#e1e0d9" stroke-width="1" opacity="1"/><line transform="translate(0,153)" x2="637" y2="0" stroke="#e1e0d9" stroke-width="1" opacity="1"/><line transform="translate(0,119)" x2="637" y2="0" stroke="#e1e0d9" stroke-width="1" opacity="1"/><line transform="translate(0,84)" x2="637" y2="0" stroke="#e1e0d9" stroke-width="1" opacity="1"/><line transform="translate(0,50)" x2="637" y2="0" stroke="#e1e0d9" stroke-width="1" opacity="1"/><line transform="translate(0,16)" x2="637" y2="0" stroke="#e1e0d9" stroke-width="1" opacity="1"/></g></g><path class="foreground" aria-hidden="true" d="" pointer-events="none" display="none"/></g></g><g class="mark-group role-axis" role="graphics-symbol" aria-roledescription="axis" aria-label="X-axis for a utc scale with values from Monday, 13 September 2021, 12:00:00 AM UTC to Monday, 10 November 2025, 12:00:00 AM UTC"><g transform="translate(0.5,237.5)"><path class="background" aria-hidden="true" d="M0,0h0v0h0Z" pointer-events="none"/><g><g class="mark-rule role-axis-tick" pointer-events="none"><line transform="translate(46,0)" x2="0" y2="5" stroke="#c3c2b7" stroke-width="1" opacity="1"/><line transform="translate(199,0)" x2="0" y2="5" stroke="#c3c2b7" stroke-width="1" opacity="1"/><line transform="translate(352,0)" x2="0" y2="5" stroke="#c3c2b7" stroke-width="1" opacity="1"/><line transform="translate(506,0)" x2="0" y2="5" stroke="#c3c2b7" stroke-width="1" opacity="1"/></g><g class="mark-text role-axis-label" pointer-events="none"><text text-anchor="middle" transform="translate(46.12903225806452,20)" font-family="DejaVu Sans" font-size="11.5px" fill="#52514e" opacity="1">2022</text><text text-anchor="middle" transform="translate(199.19354838709677,20)" font-family="DejaVu Sans" font-size="11.5px" fill="#52514e" opacity="1">2023</text><text text-anchor="middle" transform="translate(352.2580645161291,20)" font-family="DejaVu Sans" font-size="11.5px" fill="#52514e" opacity="1">2024</text><text text-anchor="middle" transform="translate(505.741935483871,20)" font-family="DejaVu Sans" font-size="11.5px" fill="#52514e" opacity="1">2025</text></g><g class="mark-rule role-axis-domain" pointer-events="none"><line transform="translate(0,0)" x2="637" y2="0" stroke="#c3c2b7" stroke-width="1" opacity="1"/></g></g><path class="foreground" aria-hidden="true" d="" pointer-events="none" display="none"/></g></g><g class="mark-group role-axis" role="graphics-symbol" aria-roledescription="axis" aria-label="Y-axis titled '%' for a linear scale with values from 5.3 to 5.9"><g transform="translate(0.5,0.5)"><path class="background" aria-hidden="true" d="M0,0h0v0h0Z" pointer-events="none"/><g><g class="mark-rule role-axis-tick" pointer-events="none"><line transform="translate(0,221)" x2="-5" y2="0" stroke="#c3c2b7" stroke-width="1" opacity="1"/><line transform="translate(0,187)" x2="-5" y2="0" stroke="#c3c2b7" stroke-width="1" opacity="1"/><line transform="translate(0,153)" x2="-5" y2="0" stroke="#c3c2b7" stroke-width="1" opacity="1"/><line transform="translate(0,119)" x2="-5" y2="0" stroke="#c3c2b7" stroke-width="1" opacity="1"/><line transform="translate(0,84)" x2="-5" y2="0" stroke="#c3c2b7" stroke-width="1" opacity="1"/><line transform="translate(0,50)" x2="-5" y2="0" stroke="#c3c2b7" stroke-width="1" opacity="1"/><line transform="translate(0,16)" x2="-5" y2="0" stroke="#c3c2b7" stroke-width="1" opacity="1"/></g><g class="mark-text role-axis-label" pointer-events="none"><text text-anchor="end" transform="translate(-9,223.6551724137931)" font-family="DejaVu Sans" font-size="11.5px" fill="#52514e" opacity="1">5.3</text><text text-anchor="end" transform="translate(-9,189.6034482758619)" font-family="DejaVu Sans" font-size="11.5px" fill="#52514e" opacity="1">5.4</text><text text-anchor="end" transform="translate(-9,155.55172413793105)" font-family="DejaVu Sans" font-size="11.5px" fill="#52514e" opacity="1">5.5</text><text text-anchor="end" transform="translate(-9,121.50000000000016)" font-family="DejaVu Sans" font-size="11.5px" fill="#52514e" opacity="1">5.6</text><text text-anchor="end" transform="translate(-9,87.44827586206897)" font-family="DejaVu Sans" font-size="11.5px" fill="#52514e" opacity="1">5.7</text><text text-anchor="end" transform="translate(-9,53.39655172413809)" font-family="DejaVu Sans" font-size="11.5px" fill="#52514e" opacity="1">5.8</text><text text-anchor="end" transform="translate(-9,19.344827586206904)" font-family="DejaVu Sans" font-size="11.5px" fill="#52514e" opacity="1">5.9</text></g><g class="mark-rule role-axis-domain" pointer-events="none"><line transform="translate(0,237)" x2="0" y2="-237" stroke="#c3c2b7" stroke-width="1" opacity="1"/></g><g class="mark-text role-axis-title" pointer-events="none"><text text-anchor="middle" transform="translate(-40,118.5) rotate(-90) translate(0,-2)" font-family="DejaVu Sans" font-size="11.5px" font-weight="normal" fill="#52514e" opacity="1">%</text></g></g><path class="foreground" aria-hidden="true" d="" pointer-events="none" display="none"/></g></g><g class="mark-rect role-mark layer_0_marks" role="graphics-object" aria-roledescription="rect mark container"><path aria-label="y: 5.252; y2: 5.6; label: reference 4–5.6; opacity: 0.28" role="graphics-symbol" aria-roledescription="rect mark" d="M0,118.50000000000016h637v118.49999999999984h-637Z" fill="#b8b7ad" opacity="0.28"/><path aria-label="y: 5.252; y2: 5.3; label: optimal ≤5.3; opacity: 0.14" role="graphics-symbol" aria-roledescription="rect mark" d="M0,220.6551724137931h637v16.34482758620689h-637Z" fill="#0ca30c" opacity="0.14"/></g><g class="mark-line role-mark layer_1_marks" role="graphics-object" aria-roledescription="line mark container"><path aria-label="date: Nov 08, 2021; %: 5.9" role="graphics-symbol" aria-roledescription="line mark" d="M23.484,16.345L102.742,50.397L179.065,84.448L264.194,118.5L358.129,152.552L446.194,186.603L534.258,220.655L613.516,220.655" stroke="#898781" stroke-width="2"/></g><g class="mark-symbol role-mark layer_2_marks" role="graphics-object" aria-roledescription="symbol mark container"><path aria-label="date: Nov 08, 2021; value: 5.9; status_label: ▲ high; status: ▲ high" role="graphics-symbol" aria-roledescription="point" transform="translate(23.483870967741936,16.344827586206904)" d="M0,-4.541L-5.244,4.541L5.244,4.541Z" fill="#d03b3b" stroke="#fcfcfb" stroke-width="1.5" opacity="1"/><path aria-label="date: May 16, 2022; value: 5.8; status_label: ▲ high; status: ▲ high" role="graphics-symbol" aria-roledescription="point" transform="translate(102.74193548387096,50.39655172413809)" d="M0,-4.541L-5.244,4.541L5.244,4.541Z" fill="#d03b3b" stroke="#fcfcfb" stroke-width="1.5" opacity="1"/><path aria-label="date: Nov 14, 2022; value: 5.7; status_label: ▲ high; status: ▲ high" role="graphics-symbol" aria-roledescription="point" transform="translate(179.06451612903226,84.44827586206897)" d="M0,-4.541L-5.244,4.541L5.244,4.541Z" fill="#d03b3b" stroke="#fcfcfb" stroke-width="1.5" opacity="1"/><path aria-label="date: Jun 05, 2023; value: 5.6; status_label: ◐ suboptimal; status: ◐ suboptimal" role="graphics-symbol" aria-roledescription="point" transform="translate(264.19354838709677,118.50000000000016)" d="M-5.244,0L0,-5.244L5.244,0L0,5.244Z" fill="#e09a00" stroke="#fcfcfb" stroke-width="1.5" opacity="1"/><path aria-label="date: Jan 15, 2024; value: 5.5; status_label: ◐ suboptimal; status: ◐ suboptimal" role="graphics-symbol" aria-roledescription="point" transform="translate(358.1290322580645,152.55172413793105)" d="M-5.244,0L0,-5.244L5.244,0L0,5.244Z" fill="#e09a00" stroke="#fcfcfb" stroke-width="1.5" opacity="1"/><path aria-label="date: Aug 12, 2024; value: 5.4; status_label: ◐ suboptimal; status: ◐ suboptimal" role="graphics-symbol" aria-roledescription="point" transform="translate(446.19354838709677,186.6034482758619)" d="M-5.244,0L0,-5.244L5.244,0L0,5.244Z" fill="#e09a00" stroke="#fcfcfb" stroke-width="1.5" opacity="1"/><path aria-label="date: Mar 10, 2025; value: 5.3; status_label: ● optimal; status: ● optimal" role="graphics-symbol" aria-roledescription="point" transform="translate(534.258064516129,220.6551724137931)" d="M5.244,0A5.244,5.244,0,1,1,-5.244,0A5.244,5.244,0,1,1,5.244,0" fill="#0ca30c" stroke="#fcfcfb" stroke-width="1.5" opacity="1"/><path aria-label="date: Sep 15, 2025; value: 5.3; status_label: ● optimal; status: ● optimal" role="graphics-symbol" aria-roledescription="point" transform="translate(613.516129032258,220.6551724137931)" d="M5.244,0A5.244,5.244,0,1,1,-5.244,0A5.244,5.244,0,1,1,5.244,0" fill="#0ca30c" stroke="#fcfcfb" stroke-width="1.5" opacity="1"/></g><g class="mark-text role-mark layer_3_marks" role="graphics-object" aria-roledescription="text mark container"><text aria-label="date: Sep 15, 2025; value: 5.3; text: latest 5.3 %" role="graphics-symbol" aria-roledescription="text mark" text-anchor="end" transform="translate(609.516129032258,205.6551724137931)" font-family="DejaVu Sans" font-size="12.5px" font-weight="bold" fill="#0b0b0b">latest 5.3 %</text></g><g class="mark-group role-legend" role="graphics-symbol" aria-roledescription="legend" aria-label="Symbol legend for fill color with 2 values: reference 4–5.6, optimal ≤5.3"><g transform="translate(0,278)"><path class="background" aria-hidden="true" d="M0,0h309v12h-309Z" pointer-events="none"/><g><g class="mark-group role-legend-entry"><g transform="translate(0,0)"><path class="background" aria-hidden="true" d="M0,0h0v0h0Z" pointer-events="none"/><g><g class="mark-group role-scope" role="graphics-object" aria-roledescription="group mark container"><g transform="translate(0,0)"><path class="background" aria-hidden="true" d="M0,0h160v12h-160Z" pointer-events="none" opacity="1"/><g><g class="mark-symbol role-legend-symbol" pointer-events="none"><path transform="translate(6,6)" d="M-5.244,-5.244h10.488v10.488h-10.488Z" fill="#b8b7ad" stroke-width="1.5" opacity="0.45"/></g><g class="mark-text role-legend-label" pointer-events="none"><text text-anchor="start" transform="translate(16,10)" font-family="DejaVu Sans" font-size="12px" fill="#52514e" opacity="1">reference 4–5.6</text></g></g><path class="foreground" aria-hidden="true" d="" pointer-events="none" display="none"/></g><g transform="translate(178,0)"><path class="background" aria-hidden="true" d="M0,0h131v12h-131Z" pointer-events="none" opacity="1"/><g><g class="mark-symbol role-legend-symbol" pointer-events="none"><path transform="translate(6,6)" d="M-5.244,-5.244h10.488v10.488h-10.488Z" fill="#0ca30c" stroke-width="1.5" opacity="0.45"/></g><g class="mark-text role-legend-label" pointer-events="none"><text text-anchor="start" transform="translate(16,10)" font-family="DejaVu Sans" font-size="12px" fill="#52514e" opacity="1">optimal ≤5.3</text></g></g><path class="foreground" aria-hidden="true" d="" pointer-events="none" display="none"/></g></g></g><path class="foreground" aria-hidden="true" d="" pointer-events="none" display="none"/></g></g></g><path class="foreground" aria-hidden="true" d="" pointer-events="none" display="none"/></g></g><g class="mark-group role-legend" role="graphics-symbol" aria-roledescription="legend" aria-label="Symbol legend for shape and fill color with 3 values: ● optimal, ◐ suboptimal, ▲ high"><g transform="translate(317,278)"><path class="background" aria-hidden="true" d="M0,0h348v15h-348Z" pointer-events="none"/><g><g class="mark-group role-legend-entry"><g transform="translate(0,0)"><path class="background" aria-hidden="true" d="M0,0h0v0h0Z" pointer-events="none"/><g><g class="mark-group role-scope" role="graphics-object" aria-roledescription="group mark container"><g transform="translate(0,0.3779778795746207)"><path class="background" aria-hidden="true" d="M0,0h102v14.244044240850759h-102Z" pointer-events="none" opacity="1"/><g><g class="mark-symbol role-legend-symbol" pointer-events="none"><path transform="translate(6,6)" d="M5.244,0A5.244,5.244,0,1,1,-5.244,0A5.244,5.244,0,1,1,5.244,0" fill="#0ca30c" stroke="#fcfcfb" stroke-width="1.5" opacity="1"/></g><g class="mark-text role-legend-label" pointer-events="none"><text text-anchor="start" transform="translate(16,10)" font-family="DejaVu Sans" font-size="12px" fill="#52514e" opacity="1">● optimal</text></g></g><path class="foreground" aria-hidden="true" d="" pointer-events="none" display="none"/></g><g transform="translate(123,0.3779778795746207)"><path class="background" aria-hidden="true" d="M0,0h131v14.244044240850759h-131Z" pointer-events="none" opacity="1"/><g><g class="mark-symbol role-legend-symbol" pointer-events="none"><path transform="translate(6,6)" d="M-5.244,0L0,-5.244L5.244,0L0,5.244Z" fill="#e09a00" stroke="#fcfcfb" stroke-width="1.5" opacity="1"/></g><g class="mark-text role-legend-label" pointer-events="none"><text text-anchor="start" transform="translate(16,10)" font-family="DejaVu Sans" font-size="12px" fill="#52514e" opacity="1">◐ suboptimal</text></g></g><path class="foreground" aria-hidden="true" d="" pointer-events="none" display="none"/></g><g transform="translate(275,0.7292622344268818)"><path class="background" aria-hidden="true" d="M0,0h73v13.541475531146236h-73Z" pointer-events="none" opacity="1"/><g><g class="mark-symbol role-legend-symbol" pointer-events="none"><path transform="translate(6,6)" d="M0,-4.541L-5.244,4.541L5.244,4.541Z" fill="#d03b3b" stroke="#fcfcfb" stroke-width="1.5" opacity="1"/></g><g class="mark-text role-legend-label" pointer-events="none"><text text-anchor="start" transform="translate(16,10)" font-family="DejaVu Sans" font-size="12px" fill="#52514e" opacity="1">▲ high</text></g></g><path class="foreground" aria-hidden="true" d="" pointer-events="none" display="none"/></g></g></g><path class="foreground" aria-hidden="true" d="" pointer-events="none" display="none"/></g></g></g><path class="foreground" aria-hidden="true" d="" pointer-events="none" display="none"/></g></g><g class="mark-group role-title"><g transform="translate(-51,-45.5)"><path class="background" aria-hidden="true" d="M0,0h0v0h0Z" pointer-events="none"/><g><g class="mark-text role-title-text" role="graphics-symbol" aria-roledescription="title" aria-label="Title text 'HbA1c · alex'" pointer-events="none"><text text-anchor="start" transform="translate(0,13)" font-family="DejaVu Sans" font-size="17px" font-weight="bold" fill="#0b0b0b" opacity="1">HbA1c · alex</text></g><g class="mark-text role-title-subtitle" role="graphics-symbol" aria-roledescription="subtitle" aria-label="Subtitle text 'latest 5.3 % on 2025-09-15 · ● optimal'" pointer-events="none"><text text-anchor="start" transform="translate(0,30)" font-family="DejaVu Sans" font-size="12.5px" fill="#52514e" opacity="1">latest 5.3 % on 2025-09-15 · ● optimal</text></g></g><path class="foreground" aria-hidden="true" d="" pointer-events="none" display="none"/></g></g></g><path class="foreground" aria-hidden="true" d="" display="none"/></g></g></g></svg>