<svg xmlns="http://www.w3.org/2000/svg" xmlns:xlink="http://www.w3.org/1999/xlink" version="1.1" class="marks" width="720" height="520" viewBox="0 0 720 520"><rect width="720" height="520" fill="#fcfcfb"/><g fill="none" stroke-miterlimit="4" transform="translate(146,62)"><g class="mark-group role-frame root" role="graphics-object" aria-roledescription="group mark container"><g transform="translate(0,0)"><path class="background" aria-hidden="true" d="M0,0h554v379h-554Z"/><g><g class="mark-group role-axis" aria-hidden="true"><g transform="translate(0.5,379.5)"><path class="background" aria-hidden="true" d="M0,0h0v0h0Z" pointer-events="none"/><g><g class="mark-rule role-axis-grid" pointer-events="none"><line transform="translate(46,0)" x2="0" y2="-379" stroke="#e1e0d9" stroke-width="1" opacity="1"/><line transform="translate(162,0)" x2="0" y2="-379" stroke="#e1e0d9" stroke-width="1" opacity="1"/><line transform="translate(277,0)" x2="0" y2="-379" stroke="#e1e0d9" stroke-width="1" opacity="1"/><line transform="translate(392,0)" x2="0" y2="-379" stroke="#e1e0d9" stroke-width="1" opacity="1"/><line transform="translate(508,0)" x2="0" y2="-379" stroke="#e1e0d9" stroke-width="1" opacity="1"/></g></g><path class="foreground" aria-hidden="true" d="" pointer-events="none" display="none"/></g></g><g class="mark-group role-axis" role="graphics-symbol" aria-roledescription="axis" aria-label="X-axis titled '% change since the earlier draw' for a linear scale with values from −48 to 48"><g transform="translate(0.5,379.5)"><path class="background" aria-hidden="true" d="M0,0h0v0h0Z" pointer-events="none"/><g><g class="mark-rule role-axis-tick" pointer-events="none"><line transform="translate(46,0)" x2="0" y2="5" stroke="#c3c2b7" stroke-width="1" opacity="1"/><line transform="translate(162,0)" x2="0" y2="5" stroke="#c3c2b7" stroke-width="1" opacity="1"/><line transform="translate(277,0)" x2="0" y2="5" stroke="#c3c2b7" stroke-width="1" opacity="1"/><line transform="translate(392,0)" x2="0" y2="5" stroke="#c3c2b7" stroke-width="1" opacity="1"/><line transform="translate(508,0)" x2="0" y2="5" stroke="#c3c2b7" stroke-width="1" opacity="1"/></g><g class="mark-text role-axis-label" pointer-events="none"><text text-anchor="middle" transform="translate(46.166666666666664,18)" font-family="DejaVu Sans" font-size="11.5px" fill="#52514e" opacity="1">−40%</text><text text-anchor="middle" transform="translate(161.58333333333334,18)" font-family="DejaVu Sans" font-size="11.5px" fill="#52514e" opacity="1">−20%</text><text text-anchor="middle" transform="translate(277,18)" font-family="DejaVu Sans" font-size="11.5px" fill="#52514e" opacity="1">0%</text><text text-anchor="middle" transform="translate(392.4166666666667,18)" font-family="DejaVu Sans" font-size="11.5px" fill="#52514e" opacity="1">20%</text><text text-anchor="middle" transform="translate(507.8333333333333,18)" font-family="DejaVu Sans" font-size="11.5px" fill="#52514e" opacity="1">40%</text></g><g class="mark-text role-axis-title" pointer-events="none"><text text-anchor="middle" transform="translate(277,37.5)" font-family="DejaVu Sans" font-size="11.5px" font-weight="normal" fill="#52514e" opacity="1">% change since the earlier draw</text></g></g><path class="foreground" aria-hidden="true" d="" pointer-events="none" display="none"/></g></g><g class="mark-group role-axis" role="graphics-symbol" aria-roledescription="axis" aria-label="Y-axis for a discrete scale with 13 values: LDL-C, HDL-C, Triglycerides, ApoB, Lp(a), ending with ALT"><g transform="translate(0.5,0.5)"><path class="background" aria-hidden="true" d="M0,0h0v0h0Z" pointer-events="none"/><g><g class="mark-text role-axis-label" pointer-events="none"><text text-anchor="end" transform="translate(-10,18.345622119815694)" font-family="DejaVu Sans" font-size="12px" fill="#0b0b0b" opacity="1">LDL-C</text><text text-anchor="end" transform="translate(-10,47.454685099846415)" font-family="DejaVu Sans" font-size="12px" fill="#0b0b0b" opacity="1">HDL-C</text><text text-anchor="end" transform="translate(-10,76.56374807987713)" font-family="DejaVu Sans" font-size="12px" fill="#0b0b0b" opacity="1">Triglycerides</text><text text-anchor="end" transform="translate(-10,105.67281105990784)" font-family="DejaVu Sans" font-size="12px" fill="#0b0b0b" opacity="1">ApoB</text><text text-anchor="end" transform="translate(-10,134.78187403993857)" font-family="DejaVu Sans" font-size="12px" fill="#0b0b0b" opacity="1">Lp(a)</text><text text-anchor="end" transform="translate(-10,163.8909370199693)" font-family="DejaVu Sans" font-size="12px" fill="#0b0b0b" opacity="1">HbA1c</text><text text-anchor="end" transform="translate(-10,193)" font-family="DejaVu Sans" font-size="12px" fill="#0b0b0b" opacity="1">Glucose</text><text text-anchor="end" transform="translate(-10,222.10906298003073)" font-family="DejaVu Sans" font-size="12px" fill="#0b0b0b" opacity="1">hs-CRP</text><text text-anchor="end" transform="translate(-10,251.21812596006146)" font-family="DejaVu Sans" font-size="12px" fill="#0b0b0b" opacity="1">Vitamin D</text><text text-anchor="end" transform="translate(-10,280.3271889400922)" font-family="DejaVu Sans" font-size="12px" fill="#0b0b0b" opacity="1">TSH</text><text text-anchor="end" transform="translate(-10,309.4362519201229)" font-family="DejaVu Sans" font-size="12px" fill="#0b0b0b" opacity="1">Ferritin</text><text text-anchor="end" transform="translate(-10,338.54531490015364)" font-family="DejaVu Sans" font-size="12px" fill="#0b0b0b" opacity="1">Testosterone</text><text text-anchor="end" transform="translate(-10,367.6543778801843)" font-family="DejaVu Sans" font-size="12px" fill="#0b0b0b" opacity="1">ALT</text></g></g><path class="foreground" aria-hidden="true" d="" pointer-events="none" display="none"/></g></g><g class="mark-rect role-mark layer_0_marks" role="graphics-object" aria-roledescription="rect mark container"><path aria-label="% change since the earlier draw: −17.4; label: LDL-C; verdict_label: ✔ improved; marker: LDL-C; change: -17.4%; values: 92 → 76 mg/dL; verdict: ✔ improved" role="graphics-symbol" aria-roledescription="bar" d="M178.5875,5.821812596006168L275,5.821812596006168C276.103830048988,5.821812596006168,277,6.717982547018169,277,7.821812596006168L277,21.869431643625216C277,22.973261692613217,276.103830048988,23.869431643625216,275,23.869431643625216L178.5875,23.869431643625216C177.48366995101202,23.869431643625216,176.5875,22.973261692613217,176.5875,21.869431643625216L176.5875,7.821812596006168C176.5875,6.717982547018169,177.48366995101202,5.821812596006168,178.5875,5.821812596006168Z" fill="#0ca30c"/><path aria-label="% change since the earlier draw: 10.9; label: HDL-C; verdict_label: ✔ improved; marker: HDL-C; change: +10.9%; values: 55 → 61 mg/dL; verdict: ✔ improved" role="graphics-symbol" aria-roledescription="bar" d="M279,34.93087557603689L337.90208333333334,34.93087557603689C339.00591338232135,34.93087557603689,339.90208333333334,35.82704552704889,339.90208333333334,36.93087557603689L339.90208333333334,50.97849462365593C339.90208333333334,52.082324672643935,339.00591338232135,52.97849462365593,337.90208333333334,52.97849462365593L279,52.97849462365593C277.896169951012,52.97849462365593,277,52.082324672643935,277,50.97849462365593L277,36.93087557603689C277,35.82704552704889,277.896169951012,34.93087557603689,279,34.93087557603689Z" fill="#0ca30c"/><path aria-label="% change since the earlier draw: −15.4; label: Triglycerides; verdict_label: ✔ improved; marker: Triglycerides; change: -15.4%; values: 104 → 88 mg/dL; verdict: ✔ improved" role="graphics-symbol" aria-roledescription="bar" d="M190.12916666666666,64.03993855606761L275,64.03993855606761C276.103830048988,64.03993855606761,277,64.93610850707961,277,66.03993855606761L277,80.08755760368666C277,81.19138765267466,276.103830048988,82.08755760368666,275,82.08755760368666L190.12916666666666,82.08755760368666C189.02533661767868,82.08755760368666,188.12916666666666,81.19138765267466,188.12916666666666,80.08755760368666L188.12916666666666,66.03993855606761C188.12916666666666,64.93610850707961,189.02533661767868,64.03993855606761,190.12916666666666,64.03993855606761Z" fill="#0ca30c"/><path aria-label="% change since the earlier draw: −11.1; label: ApoB; verdict_label: ✔ improved; marker: ApoB; change: -11.1%; values: 81 → 72 mg/dL; verdict: ✔ improved" role="graphics-symbol" aria-roledescription="bar" d="M214.94375,93.14900153609833L275,93.14900153609833C276.103830048988,93.14900153609833,277,94.04517148711032,277,95.14900153609833L277,109.19662058371738C277,110.30045063270538,276.103830048988,111.19662058371738,275,111.19662058371738L214.94375,111.19662058371738C213.839919951012,111.19662058371738,212.94375,110.30045063270538,212.94375,109.19662058371738L212.94375,95.14900153609833C212.94375,94.04517148711032,213.839919951012,93.14900153609833,214.94375,93.14900153609833Z" fill="#0ca30c"/><path aria-label="% change since the earlier draw: 2.9; label: Lp(a); verdict_label: ✖ worsened; marker: Lp(a); change: +2.9%; values: 140 → 144 nmol/L; verdict: ✖ worsened" role="graphics-symbol" aria-roledescription="bar" d="M279,122.25806451612905L291.73541666666665,122.25806451612905C292.83924671565467,122.25806451612905,293.73541666666665,123.15423446714105,293.73541666666665,124.25806451612905L293.73541666666665,138.3056835637481C293.73541666666665,139.40951361273608,292.83924671565467,140.3056835637481,291.73541666666665,140.3056835637481L279,140.3056835637481C277.896169951012,140.3056835637481,277,139.40951361273608,277,138.3056835637481L277,124.25806451612905C277,123.15423446714105,277.896169951012,122.25806451612905,279,122.25806451612905Z" fill="#d03b3b"/><path aria-label="% change since the earlier draw: −1.9; label: HbA1c; verdict_label: ✔ improved; marker: HbA1c; change: -1.9%; values: 5.4 → 5.3 %; verdict: ✔ improved" role="graphics-symbol" aria-roledescription="bar" d="M268.03541666666666,151.36712749615978L275,151.36712749615978C276.103830048988,151.36712749615978,277,152.2632974471718,277,153.36712749615978L277,167.41474654377882C277,168.5185765927668,276.103830048988,169.41474654377882,275,169.41474654377882L268.03541666666666,169.41474654377882C266.93158661767865,169.41474654377882,266.03541666666666,168.5185765927668,266.03541666666666,167.41474654377882L266.03541666666666,153.36712749615978C266.03541666666666,152.2632974471718,266.93158661767865,151.36712749615978,268.03541666666666,151.36712749615978Z" fill="#0ca30c"/><path aria-label="% change since the earlier draw: −3.3; label: Glucose; verdict_label: ✔ improved; marker: Glucose; change: -3.3%; values: 92 → 89 mg/dL; verdict: ✔ improved" role="graphics-symbol" aria-roledescription="bar" d="M259.95625,180.47619047619048L275,180.47619047619048C276.103830048988,180.47619047619048,277,181.3723604272025,277,182.47619047619048L277,196.52380952380952C277,197.6276395727975,276.103830048988,198.52380952380952,275,198.52380952380952L259.95625,198.52380952380952C258.852419951012,198.52380952380952,257.95625,197.6276395727975,257.95625,196.52380952380952L257.95625,182.47619047619048C257.95625,181.3723604272025,258.852419951012,180.47619047619048,259.95625,180.47619047619048Z" fill="#0ca30c"/><path aria-label="% change since the earlier draw: −33.3; label: hs-CRP; verdict_label: ✔ improved; marker: hs-CRP; change: -33.3%; values: 1.2 → 0.8 mg/L; verdict: ✔ improved" role="graphics-symbol" aria-roledescription="bar" d="M86.83125000000003,209.5852534562212L275,209.5852534562212C276.103830048988,209.5852534562212,277,210.48142340723322,277,211.5852534562212L277,225.63287250384025C277,226.73670255282823,276.103830048988,227.63287250384025,275,227.63287250384025L86.83125000000003,227.63287250384025C85.72741995101202,227.63287250384025,84.83125000000003,226.73670255282823,84.83125000000003,225.63287250384025L84.83125000000003,211.5852534562212C84.83125000000003,210.48142340723322,85.72741995101202,209.5852534562212,86.83125000000003,209.5852534562212Z" fill="#0ca30c"/><path aria-label="% change since the earlier draw: 17; label: Vitamin D; verdict_label: ● on-target; marker: Vitamin D; change: +17.0%; values: 47 → 55 ng/mL; verdict: ● on-target" role="graphics-symbol" aria-roledescription="bar" d="M279,238.69431643625194L373.1041666666667,238.69431643625194C374.2079967156547,238.69431643625194,375.1041666666667,239.59048638726395,375.1041666666667,240.69431643625194L375.1041666666667,254.74193548387098C375.1041666666667,255.84576553285896,374.2079967156547,256.741935483871,373.1041666666667,256.741935483871L279,256.741935483871C277.896169951012,256.741935483871,277,255.84576553285896,277,254.74193548387098L277,240.69431643625194C277,239.59048638726395,277.896169951012,238.69431643625194,279,238.69431643625194Z" fill="#2a78d6"/><path aria-label="% change since the earlier draw: 5; label: TSH; verdict_label: ● on-target; marker: TSH; change: +5.0%; values: 2 → 2.1 mIU/L; verdict: ● on-target" role="graphics-symbol" aria-roledescription="bar" d="M279,267.80337941628267L303.8541666666667,267.80337941628267C304.9579967156547,267.80337941628267,305.8541666666667,268.69954936729465,305.8541666666667,269.80337941628267L305.8541666666667,283.8509984639017C305.8541666666667,284.9548285128897,304.9579967156547,285.8509984639017,303.8541666666667,285.8509984639017L279,285.8509984639017C277.896169951012,285.8509984639017,277,284.9548285128897,277,283.8509984639017L277,269.80337941628267C277,268.69954936729465,277.896169951012,267.80337941628267,279,267.80337941628267Z" fill="#2a78d6"/><path aria-label="% change since the earlier draw: −8.9; label: Ferritin; verdict_label: ✔ improved; marker: Ferritin; change: -8.9%; values: 169 → 154 ng/mL; verdict: ✔ improved" role="graphics-symbol" aria-roledescription="bar" d="M227.63958333333332,296.9124423963134L275,296.9124423963134C276.103830048988,296.9124423963134,277,297.8086123473254,277,298.9124423963134L277,312.96006144393243C277,314.06389149292045,276.103830048988,314.96006144393243,275,314.96006144393243L227.63958333333332,314.96006144393243C226.53575328434533,314.96006144393243,225.63958333333332,314.06389149292045,225.63958333333332,312.96006144393243L225.63958333333332,298.9124423963134C225.63958333333332,297.8086123473254,226.53575328434533,296.9124423963134,227.63958333333332,296.9124423963134Z" fill="#0ca30c"/><path aria-label="% change since the earlier draw: 7.5; label: Testosterone; verdict_label: ● on-target; marker: Testosterone; change: +7.5%; values: 575 → 618 ng/dL; verdict: ● on-target" role="graphics-symbol" aria-roledescription="bar" d="M279,326.0215053763441L318.28125,326.0215053763441C319.385080048988,326.0215053763441,320.28125,326.9176753273561,320.28125,328.0215053763441L320.28125,342.06912442396316C320.28125,343.1729544729512,319.385080048988,344.06912442396316,318.28125,344.06912442396316L279,344.06912442396316C277.896169951012,344.06912442396316,277,343.1729544729512,277,342.06912442396316L277,328.0215053763441C277,326.9176753273561,277.896169951012,326.0215053763441,279,326.0215053763441Z" fill="#2a78d6"/><path aria-label="% change since the earlier draw: −17.2; label: ALT; verdict_label: ● on-target; marker: ALT; change: -17.2%; values: 29 → 24 U/L; verdict: ● on-target" role="graphics-symbol" aria-roledescription="bar" d="M179.74166666666667,355.1305683563748L275,355.1305683563748C276.103830048988,355.1305683563748,277,356.0267383073868,277,357.1305683563748L277,371.17818740399383C277,372.28201745298185,276.103830048988,373.17818740399383,275,373.17818740399383L179.74166666666667,373.17818740399383C178.6378366176787,373.17818740399383,177.74166666666667,372.28201745298185,177.74166666666667,371.17818740399383L177.74166666666667,357.1305683563748C177.74166666666667,356.0267383073868,178.6378366176787,355.1305683563748,179.74166666666667,355.1305683563748Z" fill="#2a78d6"/></g><g class="mark-rule role-mark layer_1_marks" role="graphics-object" aria-roledescription="rule mark container"><line aria-label="value: 0" role="graphics-symbol" aria-roledescription="rule mark" transform="translate(277,0)" x2="0" y2="379" stroke="#52514e" stroke-width="1.5"/></g><g class="mark-text role-mark layer_2_marks" role="graphics-object" aria-roledescription="text mark container"><text aria-label="pct: 10.9; label: HDL-C; text: +10.9% ✔" role="graphics-symbol" aria-roledescription="text mark" text-anchor="start" transform="translate(346.90208333333334,46.954685099846415)" font-family="DejaVu Sans" font-size="11.5px" fill="#0b0b0b">+10.9% ✔</text><text aria-label="pct: 2.9; label: Lp(a); text: +2.9% ✖" role="graphics-symbol" aria-roledescription="text mark" text-anchor="start" transform="translate(300.73541666666665,134.28187403993857)" font-family="DejaVu Sans" font-size="11.5px" fill="#0b0b0b">+2.9% ✖</text><text aria-label="pct: 17; label: Vitamin D; text: +17.0% ●" role="graphics-symbol" aria-roledescription="text mark" text-anchor="start" transform="translate(382.1041666666667,250.71812596006146)" font-family="DejaVu Sans" font-size="11.5px" fill="#0b0b0b">+17.0% ●</text><text aria-label="pct: 5; label: TSH; text: +5.0% ●" role="graphics-symbol" aria-roledescription="text mark" text-anchor="start" transform="translate(312.8541666666667,279.8271889400922)" font-family="DejaVu Sans" font-size="11.5px" fill="#0b0b0b">+5.0% ●</text><text aria-label="pct: 7.5; label: Testosterone; text: +7.5% ●" role="graphics-symbol" aria-roledescription="text mark" text-anchor="start" transform="translate(327.28125,338.04531490015364)" font-family="DejaVu Sans" font-size="11.5px" fill="#0b0b0b">+7.5% ●</text></g><g class="mark-text role-mark layer_3_marks" role="graphics-object" aria-roledescription="text mark container"><text aria-label="pct: −17.4; label: LDL-C; text: -17.4% ✔" role="graphics-symbol" aria-roledescription="text mark" text-anchor="end" transform="translate(169.5875,17.845622119815694)" font-family="DejaVu Sans" font-size="11.5px" fill="#0b0b0b">-17.4% ✔</text><text aria-label="pct: −15.4; label: Triglycerides; text: -15.4% ✔" role="graphics-symbol" aria-roledescription="text mark" text-anchor="end" transform="translate(181.12916666666666,76.06374807987713)" font-family="DejaVu Sans" font-size="11.5px" fill="#0b0b0b">-15.4% ✔</text><text aria-label="pct: −11.1; label: ApoB; text: -11.1% ✔" role="graphics-symbol" aria-roledescription="text mark" text-anchor="end" transform="translate(205.94375,105.17281105990784)" font-family="DejaVu Sans" font-size="11.5px" fill="#0b0b0b">-11.1% ✔</text><text aria-label="pct: −1.9; label: HbA1c; text: -1.9% ✔" role="graphics-symbol" aria-roledescription="text mark" text-anchor="end" transform="translate(259.03541666666666,163.3909370199693)" font-family="DejaVu Sans" font-size="11.5px" fill="#0b0b0b">-1.9% ✔</text><text aria-label="pct: −3.3; label: Glucose; text: -3.3% ✔" role="graphics-symbol" aria-roledescription="text mark" text-anchor="end" transform="translate(250.95625,192.5)" font-family="DejaVu Sans" font-size="11.5px" fill="#0b0b0b">-3.3% ✔</text><text aria-label="pct: −33.3; label: hs-CRP; text: -33.3% ✔" role="graphics-symbol" aria-roledescription="text mark" text-anchor="end" transform="translate(77.83125000000003,221.60906298003073)" font-family="DejaVu Sans" font-size="11.5px" fill="#0b0b0b">-33.3% ✔</text><text aria-label="pct: −8.9; label: Ferritin; text: -8.9% ✔" role="graphics-symbol" aria-roledescription="text mark" text-anchor="end" transform="translate(218.63958333333332,308.9362519201229)" font-family="DejaVu Sans" font-size="11.5px" fill="#0b0b0b">-8.9% ✔</text><text aria-label="pct: −17.2; label: ALT; text: -17.2% ●" role="graphics-symbol" aria-roledescription="text mark" text-anchor="end" transform="translate(170.74166666666667,367.1543778801843)" font-family="DejaVu Sans" font-size="11.5px" fill="#0b0b0b">-17.2% ●</text></g><g class="mark-group role-legend" role="graphics-symbol" aria-roledescription="legend" aria-label="Symbol legend for fill color with 3 values: ✔ improved, ● on-target, ✖ worsened"><g transform="translate(0,437)"><path class="background" aria-hidden="true" d="M0,0h387v13h-387Z" pointer-events="none"/><g><g class="mark-group role-legend-entry"><g transform="translate(0,0)"><path class="background" aria-hidden="true" d="M0,0h0v0h0Z" pointer-events="none"/><g><g class="mark-group role-scope" role="graphics-object" aria-roledescription="group mark container"><g transform="translate(0,0)"><path class="background" aria-hidden="true" d="M0,0h114v13h-114Z" pointer-events="none" opacity="1"/><g><g class="mark-symbol role-legend-symbol" pointer-events="none"><path transform="translate(7,7)" d="M-5.916,-5.916h11.832v11.832h-11.832Z" fill="#0ca30c" stroke-width="1.5" opacity="1"/></g><g class="mark-text role-legend-label" pointer-events="none"><text text-anchor="start" transform="translate(18,11)" font-family="DejaVu Sans" font-size="12px" fill="#52514e" opacity="1">✔ improved</text></g></g><path class="foreground" aria-hidden="true" d="" pointer-events="none" display="none"/></g><g transform="translate(132,0)"><path class="background" aria-hidden="true" d="M0,0h123v13h-123Z" pointer-events="none" opacity="1"/><g><g class="mark-symbol role-legend-symbol" pointer-events="none"><path transform="translate(7,7)" d="M-5.916,-5.916h11.832v11.832h-11.832Z" fill="#2a78d6" stroke-width="1.5" opacity="1"/></g><g class="mark-text role-legend-label" pointer-events="none"><text text-anchor="start" transform="translate(18,11)" font-family="DejaVu Sans" font-size="12px" fill="#52514e" opacity="1">● on-target</text></g></g><path class="foreground" aria-hidden="true" d="" pointer-events="none" display="none"/></g><g transform="translate(273,0)"><path class="background" aria-hidden="true" d="M0,0h114v13h-114Z" pointer-events="none" opacity="1"/><g><g class="mark-symbol role-legend-symbol" pointer-events="none"><path transform="translate(7,7)" d="M-5.916,-5.916h11.832v11.832h-11.832Z" fill="#d03b3b" stroke-width="1.5" opacity="1"/></g><g class="mark-text role-legend-label" pointer-events="none"><text text-anchor="start" transform="translate(18,11)" font-family="DejaVu Sans" font-size="12px" fill="#52514e" opacity="1">✖ worsened</text></g></g><path class="foreground" aria-hidden="true" d="" pointer-events="none" display="none"/></g></g></g><path class="foreground" aria-hidden="true" d="" pointer-events="none" display="none"/></g></g></g><path class="foreground" aria-hidden="true" d="" pointer-events="none" display="none"/></g></g><g class="mark-group role-title"><g transform="translate(-134,-48.25)"><path class="background" aria-hidden="true" d="M0,0h0v0h0Z" pointer-events="none"/><g><g class="mark-text role-title-text" role="graphics-symbol" aria-roledescription="title" aria-label="Title text 'Change 2024-08-12 → 2025-09-15 · alex'" pointer-events="none"><text text-anchor="start" transform="translate(0,13)" font-family="DejaVu Sans" font-size="17px" font-weight="bold" fill="#0b0b0b" opacity="1">Change 2024-08-12 → 2025-09-15 · alex</text></g><g class="mark-text role-title-subtitle" role="graphics-symbol" aria-roledescription="subtitle" aria-label="Subtitle text 'percent change per marker; judged toward or away from target'" pointer-events="none"><text text-anchor="start" transform="translate(0,30)" font-family="DejaVu Sans" font-size="12.5px" fill="#52514e" opacity="1">percent change per marker; judged toward or away from target</text></g></g><path class="foreground" aria-hidden="true" d="" pointer-events="none" display="none"/></g></g></g><path class="foreground" aria-hidden="true" d="" display="none"/></g></g></g></svg>